<svg width="106" height="119" viewBox="0 0 106 119" fill="none" xmlns="http://www.w3.org/2000/svg">
<g clip-path="url(#clip0_257_434)">
<path d="M17.4751 93.1633L19.5271 94.8467L17.2985 99.6958L17.3153 99.7126L21.3942 96.3793L23.4462 98.0627L18.7114 104.202L17.3994 103.121L20.9905 98.4647H20.9737L16.2556 102.192L15.1876 101.321L17.6601 95.7428L17.6433 95.7261L14.0522 100.383L12.7402 99.3022L17.4667 93.1717L17.4751 93.1633Z" fill="white" fill-opacity="0.8"/>
<path d="M25.6748 99.3271L27.2475 100.248L25.7085 108.372L24.0938 107.417L24.4049 105.985L22.3361 104.763L21.2848 105.768L19.6953 104.838L25.6748 99.3355V99.3271ZM23.421 103.657L24.7666 104.453L25.4225 101.681L25.4057 101.664L23.421 103.657Z" fill="white" fill-opacity="0.8"/>
<path d="M29.5005 101.53L31.1909 102.242L31.6114 107.635H31.6282L33.4027 103.18L34.9502 103.833L32.0655 111.086L30.3751 110.366L29.9714 104.913H29.9546L28.1549 109.428L26.6074 108.766L29.4921 101.513L29.5005 101.53Z" fill="white" fill-opacity="0.8"/>
<path d="M37.8097 107.175C38.0536 106.722 38.3564 106.345 38.718 106.044C39.0796 105.742 39.4833 105.533 39.9374 105.416C40.3916 105.299 40.871 105.299 41.384 105.416C41.897 105.525 42.3343 105.726 42.7128 106.019C43.0828 106.312 43.3772 106.672 43.5874 107.099C43.7977 107.526 43.9322 108.004 43.9743 108.515C44.0247 109.025 43.9911 109.561 43.8818 110.131C43.764 110.684 43.5874 111.195 43.3435 111.638C43.0996 112.091 42.7969 112.468 42.4352 112.777C42.082 113.079 41.6699 113.288 41.2158 113.406C40.7616 113.523 40.2823 113.523 39.7692 113.406C39.2562 113.297 38.8189 113.096 38.4405 112.803C38.0704 112.509 37.7761 112.149 37.5658 111.722C37.3556 111.295 37.2294 110.826 37.179 110.307C37.1285 109.788 37.1621 109.252 37.2799 108.699C37.3976 108.138 37.5742 107.635 37.8181 107.183L37.8097 107.175ZM38.9282 109.93C38.9282 110.215 38.9787 110.474 39.0544 110.717C39.1385 110.96 39.2646 111.169 39.4413 111.337C39.6179 111.504 39.8365 111.622 40.1056 111.68C40.3748 111.739 40.6187 111.722 40.8457 111.647C41.0728 111.563 41.2662 111.429 41.4344 111.245C41.6026 111.052 41.7456 110.834 41.8549 110.575C41.9727 110.315 42.0568 110.039 42.1156 109.746C42.1745 109.453 42.1997 109.159 42.1997 108.875C42.1997 108.59 42.1577 108.322 42.0736 108.079C41.9895 107.836 41.8633 107.635 41.6867 107.468C41.5101 107.3 41.2915 107.191 41.0223 107.124C40.7532 107.066 40.5093 107.082 40.2823 107.166C40.0552 107.25 39.8618 107.384 39.6936 107.568C39.5254 107.752 39.3824 107.979 39.2731 108.238C39.1553 108.498 39.0712 108.774 39.0123 109.067C38.9535 109.36 38.9282 109.654 38.9282 109.93Z" fill="white" fill-opacity="0.8"/>
<path d="M45.2024 106.303L50.2148 106.789L50.0634 108.422L46.8171 108.104L46.6741 109.704L49.4747 109.98L49.3317 111.555L46.5227 111.278L46.2452 114.285L44.4707 114.109L45.1856 106.303H45.2024Z" fill="white" fill-opacity="0.8"/>
<path d="M53.3691 107.007L55.9762 106.748L57.633 111.831H57.6583L58.3395 106.513L60.955 106.253L61.6867 114.059L60.0215 114.226L59.4664 108.305H59.4496L58.575 114.377L57.2209 114.511L55.2362 108.732H55.2194L55.7744 114.662L54.1092 114.829L53.3776 107.024L53.3691 107.007Z" fill="white" fill-opacity="0.8"/>
<path d="M61.7207 105.943L63.4616 105.558L65.0427 113.221L63.3018 113.606L61.7207 105.943Z" fill="white" fill-opacity="0.8"/>
<path d="M67.1282 109.972C67.2712 110.391 67.473 110.65 67.7337 110.767C67.9944 110.876 68.3224 110.876 68.7093 110.767C68.9952 110.675 69.2223 110.541 69.3905 110.349C69.5587 110.156 69.6092 109.938 69.5251 109.67C69.4578 109.427 69.2896 109.277 69.0373 109.226C68.785 109.168 68.3981 109.143 67.8767 109.151C67.6244 109.159 67.4394 109.159 67.3301 109.159C67.0273 109.159 66.7582 109.126 66.5143 109.092C66.2704 109.051 66.0349 108.975 65.7994 108.866C65.5724 108.757 65.3705 108.598 65.1939 108.389C65.0173 108.18 64.8827 107.912 64.7902 107.585C64.6725 107.191 64.6557 106.823 64.7229 106.488C64.7986 106.144 64.9332 105.843 65.135 105.575C65.3369 105.315 65.5892 105.089 65.8751 104.905C66.1695 104.721 66.4722 104.578 66.7918 104.478C67.1282 104.369 67.4646 104.319 67.8094 104.31C68.1458 104.31 68.4738 104.377 68.7766 104.495C69.0793 104.62 69.3569 104.813 69.5924 105.072C69.8278 105.332 70.0044 105.675 70.1222 106.077L68.4149 106.605C68.3224 106.278 68.1458 106.086 67.9019 106.002C67.658 105.927 67.3889 105.935 67.0946 106.027C66.8759 106.094 66.6993 106.203 66.5563 106.354C66.4218 106.505 66.3881 106.689 66.447 106.915C66.5059 107.116 66.6573 107.242 66.8927 107.283C67.1282 107.325 67.4898 107.342 67.986 107.325C68.2467 107.325 68.457 107.325 68.6336 107.317C68.9364 107.325 69.2055 107.35 69.4494 107.384C69.6933 107.426 69.9288 107.501 70.1558 107.61C70.3829 107.727 70.5847 107.886 70.7613 108.096C70.9295 108.305 71.0725 108.573 71.165 108.891C71.2996 109.344 71.3332 109.762 71.2744 110.139C71.2155 110.516 71.0809 110.843 70.8707 111.119C70.6604 111.396 70.3997 111.63 70.0885 111.823C69.7774 112.007 69.4326 112.166 69.0457 112.283C68.6588 112.401 68.272 112.468 67.9103 112.468C67.5403 112.468 67.1955 112.401 66.8675 112.267C66.5395 112.133 66.2452 111.915 66.0013 111.622C65.749 111.329 65.564 110.943 65.4294 110.483L67.1366 109.955L67.1282 109.972Z" fill="white" fill-opacity="0.8"/>
<path d="M73.2917 107.836C73.4767 108.23 73.7038 108.473 73.9729 108.556C74.242 108.64 74.57 108.607 74.9401 108.439C75.2176 108.314 75.4278 108.154 75.5708 107.945C75.7138 107.744 75.739 107.51 75.6381 107.258C75.5372 107.024 75.3606 106.89 75.0999 106.865C74.8391 106.84 74.4523 106.856 73.9393 106.915C73.687 106.957 73.5104 106.974 73.401 106.982C73.0983 107.015 72.8291 107.015 72.5768 107.007C72.333 106.99 72.0891 106.948 71.8452 106.865C71.6097 106.781 71.391 106.639 71.1892 106.454C70.9874 106.262 70.8276 106.01 70.7014 105.701C70.55 105.315 70.4912 104.955 70.5248 104.612C70.5584 104.268 70.6594 103.95 70.836 103.665C71.0126 103.381 71.2312 103.129 71.5004 102.912C71.7695 102.694 72.0554 102.518 72.375 102.384C72.6946 102.242 73.031 102.15 73.3674 102.116C73.7038 102.074 74.0318 102.099 74.343 102.191C74.6625 102.284 74.9485 102.443 75.2092 102.686C75.4699 102.92 75.6801 103.23 75.8399 103.624L74.2 104.335C74.0738 104.026 73.8888 103.841 73.6365 103.799C73.3842 103.749 73.1151 103.783 72.8376 103.908C72.6273 104 72.4591 104.126 72.3414 104.294C72.2236 104.461 72.2068 104.654 72.2993 104.871C72.3834 105.072 72.5432 105.173 72.7871 105.19C73.031 105.206 73.3926 105.181 73.872 105.106C74.1327 105.072 74.343 105.047 74.5112 105.031C74.8139 104.997 75.083 104.997 75.3353 105.005C75.5792 105.022 75.8231 105.072 76.0586 105.156C76.2941 105.248 76.5127 105.382 76.7062 105.575C76.8996 105.759 77.0594 106.01 77.1855 106.32C77.3622 106.764 77.4378 107.166 77.421 107.551C77.3958 107.928 77.3033 108.272 77.1183 108.573C76.9416 108.866 76.7062 109.134 76.4118 109.36C76.1259 109.587 75.7895 109.779 75.4194 109.938C75.041 110.106 74.6709 110.206 74.3093 110.248C73.9477 110.29 73.5945 110.265 73.2581 110.164C72.9132 110.064 72.6105 109.888 72.3245 109.62C72.047 109.352 71.8199 109 71.6349 108.548L73.2749 107.836H73.2917Z" fill="white" fill-opacity="0.8"/>
<path d="M75.5977 101.077L77.1872 100.24L80.6605 107.208L79.0794 108.045L75.6061 101.069L75.5977 101.077Z" fill="white" fill-opacity="0.8"/>
<path d="M79.1709 101.856C79.0447 101.354 79.0111 100.868 79.0615 100.391C79.1204 99.9135 79.2718 99.4696 79.5157 99.0676C79.768 98.6572 80.1128 98.3139 80.5585 98.0291C81.0043 97.7444 81.4584 97.5769 81.921 97.5182C82.3835 97.4596 82.8376 97.5182 83.275 97.669C83.7123 97.8281 84.1244 98.071 84.5028 98.4144C84.8813 98.7494 85.2261 99.1597 85.512 99.6455C85.8064 100.131 86.0166 100.617 86.1428 101.119C86.2689 101.622 86.3026 102.108 86.2521 102.585C86.2017 103.062 86.0419 103.498 85.798 103.908C85.5457 104.319 85.2009 104.662 84.7551 104.955C84.3094 105.24 83.8553 105.407 83.3927 105.466C82.9302 105.516 82.476 105.466 82.0387 105.307C81.6014 105.148 81.1893 104.905 80.8108 104.57C80.4324 104.235 80.096 103.816 79.8016 103.339C79.5073 102.853 79.297 102.359 79.1709 101.856ZM81.8369 103.046C82.0303 103.247 82.2405 103.406 82.4592 103.523C82.6779 103.64 82.9049 103.699 83.1488 103.691C83.3843 103.691 83.6282 103.607 83.8553 103.464C84.0907 103.314 84.2589 103.129 84.3599 102.912C84.4692 102.686 84.5197 102.451 84.5197 102.2C84.5197 101.94 84.4692 101.681 84.3767 101.413C84.2842 101.145 84.1664 100.885 84.0066 100.625C83.8553 100.374 83.6786 100.14 83.4852 99.9386C83.2918 99.7376 83.0815 99.5785 82.8629 99.4612C82.6442 99.344 82.4087 99.2854 82.1733 99.2937C81.9294 99.2937 81.6939 99.3691 81.4668 99.5199C81.2313 99.6706 81.0631 99.8549 80.9538 100.073C80.8445 100.299 80.794 100.533 80.8024 100.784C80.8024 101.044 80.8529 101.304 80.9454 101.572C81.0379 101.84 81.1556 102.099 81.3154 102.359C81.4668 102.61 81.6434 102.845 81.8369 103.046Z" fill="white" fill-opacity="0.8"/>
<path d="M83.9062 95.994L85.336 94.8215L90.1129 97.0744H90.1297L87.2114 93.2889L88.5234 92.2085L93.2582 98.339L91.8285 99.5199L87.018 97.2335H87.0011L89.9531 101.061L88.6411 102.141L83.9062 96.0107V95.994Z" fill="white" fill-opacity="0.8"/>
<path d="M95.908 63.1221C95.908 63.1221 95.109 62.2762 95.0838 62.2511C94.4278 61.5978 93.9064 61.5308 93.6877 61.5308C92.4767 61.4638 91.7198 62.4521 91.4422 63.0886C90.6433 65.1321 91.9973 66.7484 92.2076 66.9829C92.3001 67.1002 92.8551 67.7869 93.5447 68.482C91.3245 75.4668 87.4307 81.7229 82.208 86.9405L81.6614 87.4849L84.5124 90.1314C76.0351 97.9787 64.8161 102.468 53 102.468C41.1839 102.468 29.9649 97.9787 21.4792 90.1314L24.3302 87.4849L23.7836 86.9405C18.5609 81.7229 14.6671 75.4668 12.4468 68.482C13.1281 67.7869 13.6831 67.1002 13.784 66.9829C14.0027 66.7484 15.3567 65.1404 14.5493 63.0886C14.2718 62.4521 13.5149 61.4638 12.3039 61.5308C12.0936 61.5308 11.5638 61.5978 10.9162 62.2511C10.891 62.2762 10.092 63.1221 10.092 63.1221L0 73.8504C0 73.8504 1.21104 83.0964 5.93748 90.2989L3.22104 93.1966L3.54903 93.6907C13.6999 108.824 33.5728 118.992 53 118.992C72.4272 118.992 92.3001 108.824 102.451 93.6907L102.779 93.1966L100.063 90.2989C104.789 83.0964 106 73.8504 106 73.8504L95.908 63.1221ZM92.7878 66.1287C92.7878 66.1287 91.6189 64.7887 92.1907 63.4571C92.6953 62.2678 93.2756 62.4353 93.5363 62.4353C94.1503 62.4604 95.0501 63.5659 95.0501 63.5659L93.898 67.4603L92.7878 66.1287ZM83.4611 87.5519C85.7655 86.8567 88.2801 85.6005 89.7014 84.7714C88.5576 86.1532 86.6738 88.1381 85.4122 89.386L83.4611 87.5519ZM20.5877 89.386C19.3262 88.1381 17.4424 86.1532 16.2986 84.7714C17.7199 85.5921 20.2429 86.8484 22.5389 87.5519L20.5877 89.386ZM12.4553 62.4353C12.7244 62.4353 13.2963 62.2678 13.8009 63.4571C14.3727 64.7971 13.2037 66.1287 13.2037 66.1287L12.0936 67.4603L10.9414 63.5659C10.9414 63.5659 11.8413 62.4604 12.4553 62.4353ZM1.10171 74.2189L10.2182 64.4704C12.6655 73.574 15.9959 79.6375 21.4456 86.1281C16.2482 84.2019 14.2718 81.681 14.2382 81.6224L6.76166 89.52C3.4397 84.1684 1.42129 77.527 1.10171 74.2189ZM101.307 93.3222C101.307 93.3222 86.5644 117.141 53 117.853C19.4272 117.149 4.6928 93.3222 4.6928 93.3222L14.0447 83.3476C14.0447 83.3476 25.844 103.196 53 103.615C80.156 103.188 91.9552 83.3476 91.9552 83.3476L101.307 93.3222ZM99.2467 89.52L91.7702 81.6224C91.7366 81.681 89.7602 84.2019 84.5628 86.1281C90.0125 79.6375 93.3429 73.574 95.7902 64.4704L104.907 74.2189C104.596 77.527 102.569 84.1684 99.2551 89.52H99.2467Z" fill="white" fill-opacity="0.8"/>
<path d="M91.8281 81.5304L92.0804 81.7984L91.8449 81.5137C91.8449 81.5137 91.8449 81.5304 91.8365 81.5304H91.8281Z" fill="#CCCCCC"/>
<path d="M91.8127 81.5137L91.6445 81.7565C91.7286 81.6644 91.7875 81.589 91.8211 81.5304L91.8043 81.5137H91.8127Z" fill="#CCCCCC"/>
<path d="M52.9991 2.81399C63.7555 9.94947 81.4334 10.5273 86.7822 10.5273C88.5231 10.5273 90.2808 10.4938 92.0385 10.4352C89.7846 17.3697 86.3028 30.8032 89.2379 45.2249C92.2992 60.2831 88.4642 73.1889 77.8423 83.5822C69.1968 92.041 58.5329 96.4462 53.9747 98.3306C53.6046 98.4813 53.2851 98.6153 52.9991 98.7326C52.7216 98.6153 52.3936 98.4813 52.0235 98.3306C47.4737 96.4462 36.8098 92.041 28.1559 83.5822C17.534 73.1889 13.699 60.2831 16.7603 45.2249C19.6954 30.8032 16.2052 17.3697 13.9598 10.4352C15.7175 10.4938 17.4752 10.5273 19.216 10.5273C24.5648 10.5273 42.2427 9.94947 52.9991 2.81399ZM52.9991 0C45.0685 6.07186 30.4771 8.2326 19.216 8.2326C15.852 8.2326 12.9085 8.11535 10.7051 7.98972C12.3955 12.7802 17.8788 28.232 14.5148 44.7642C6.18048 85.743 49.1305 99.2267 52.9991 101.237C56.8677 99.2351 99.8177 85.7514 91.4834 44.7642C88.1194 28.232 93.6027 12.7802 95.2931 7.98972C93.0897 8.11535 90.1462 8.2326 86.7822 8.2326C75.5296 8.2326 60.9298 6.07186 52.9991 0Z" fill="white" fill-opacity="0.8"/>
<path d="M66.6667 54.9398C66.6667 54.9398 66.6415 54.6718 66.4901 54.5127C66.4901 54.5127 66.0443 53.8929 64.5726 54.3117C64.5726 54.3117 63.8493 54.6467 63.8914 54.1526C63.8914 54.1526 63.8746 53.8427 64.4633 53.9515C64.4633 53.9515 65.3715 54.052 65.7164 53.7757C65.7164 53.7757 66.0107 53.7673 65.9098 53.985C65.9098 53.985 65.8509 54.1944 66.1873 53.9097C66.1873 53.9097 66.3471 53.4826 65.8341 53.3821C65.8341 53.3821 65.6575 52.6451 64.211 52.9884C64.211 52.9884 63.8746 53.1057 63.4961 53.4407L63.3195 53.5914C62.8149 53.5747 62.0496 54.8728 62.0496 54.8728C61.5954 55.4925 61.1665 55.6349 61.1665 55.6349L56.684 56.9414C56.1962 57.0922 56.0196 56.8242 56.0196 56.8242L55.372 56.2212C55.1954 56.062 55.7252 56.1207 55.7252 56.1207C56.213 56.1625 56.2719 55.8694 56.2719 55.8694C56.8017 54.9565 56.2551 55.124 56.2551 55.124C55.9439 55.1659 54.3039 55.3418 54.3039 55.3418C53.7909 55.3083 53.9928 54.7137 53.9928 54.7137C54.2451 54.0939 54.5226 53.7003 54.5226 53.7003C55.5066 52.7874 56.8354 54.2698 56.8354 54.2698C57.4241 53.3318 57.4577 52.5111 57.4577 52.5111C57.4998 51.5563 55.4814 51.4558 55.4814 51.4558V51.1627C55.4982 50.8528 54.9515 50.6853 54.2787 50.5848C53.2022 50.4257 51.7894 50.4676 51.7894 50.4676C51.7894 50.4676 51.865 49.7054 51.125 49.5379C51.125 49.5379 50.2419 49.4039 50.3849 50.4341H50.2503C50.2503 50.4341 49.956 49.5966 48.9552 49.7138C48.9552 49.7138 47.9712 49.8478 48.0301 50.7607C48.0301 50.7607 48.1478 51.3302 48.7365 51.3302C48.7365 51.3302 47.5255 51.7071 46.9199 52.8461C46.8695 52.9465 46.819 53.0471 46.777 53.1643C46.777 53.1643 46.3901 55.2832 45.1118 55.4674C45.1118 55.4674 45.5239 56.0285 46.7097 55.4088C46.7097 55.4088 46.9704 56.6567 45.7509 58.3903C45.7509 58.3903 45.5996 58.7002 46.0873 58.3903C46.0873 58.3903 46.7517 57.9632 47.105 57.3183C47.105 57.3183 48.0217 58.5327 46.8863 60.7604C46.8863 60.7604 46.5919 61.3215 47.1807 60.9112C47.1807 60.9112 47.9376 60.3333 48.1562 59.2027C48.1562 59.2027 48.2908 58.9849 48.3665 59.2445C48.3665 59.2445 48.7954 60.7269 48.5431 62.8458C48.5431 62.8458 48.5263 63.1724 48.7954 62.8458C48.7954 62.8458 49.3084 62.2846 49.485 60.618C49.485 60.618 49.5439 60.3668 49.6448 60.6934C49.6448 60.6934 50.2671 61.623 50.1158 63.6581C50.1158 63.6581 50.1158 64.6296 49.2159 65.2745C49.2159 65.2745 46.7938 66.4219 45.8939 68.0048C45.8939 68.0048 45.0193 68.7836 43.9344 68.9595C43.9344 68.9595 42.0169 69.328 42.4879 66.6229C42.4879 66.6229 43.2111 63.4739 43.8587 62.2009C43.8587 62.2009 44.9688 59.5293 44.8343 57.1508C44.8343 57.1508 44.7333 54.9147 42.5888 54.7304C42.5888 54.7304 41.7478 54.4624 40.8059 55.66C40.8059 55.66 40.3685 56.5562 41.0834 57.3769L40.9825 57.4188C40.9825 57.4188 40.7638 57.1592 40.0742 57.2178C40.0742 57.2178 38.8463 57.4523 39.3341 58.876C39.3341 58.876 39.4771 59.2613 39.8051 59.4623C39.8051 59.4623 40.7049 60.1407 40.9152 60.4589C40.9152 60.4589 41.403 61.0787 41.403 61.8073C41.403 61.8073 42.984 60.484 43.1859 58.4154C43.1859 58.4154 43.413 57.3015 42.2271 56.9917C42.2271 56.9917 41.6805 56.9163 41.4198 57.4188C41.4198 57.4188 40.5367 56.2212 42.1851 55.7019C42.1851 55.7019 44.3717 55.4674 43.9428 59.4037C43.9428 59.4037 43.7494 60.8442 43.1775 62.3265C43.1775 62.3265 42.0085 65.2661 41.7646 66.2041C41.7646 66.2041 40.8647 69.8472 43.4046 69.9059C43.4046 69.9059 44.582 70.065 45.7173 68.9763C45.7173 68.9763 46.1462 70.1655 46.0537 71.7065C46.0537 71.7065 45.6668 73.4736 43.5643 72.0331C43.5643 72.0331 42.3112 71.0951 40.8647 69.7384C40.8647 69.7384 40.7049 69.6462 40.7049 69.9477C40.7049 69.9477 40.2172 73.5909 40.5536 76.0447C40.5536 76.0447 37.8119 76.9827 40.1246 79.2775C40.1246 79.2775 40.0237 78.8503 40.0658 78.6494C40.0658 78.6494 40.1078 78.4986 40.2844 78.5572C40.2844 78.5572 41.0329 79.0095 41.6889 78.0464C41.6889 78.0464 41.6469 78.9592 42.7065 79.1602C42.7065 79.1602 43.1691 79.2691 42.4122 79.7046C42.4122 79.7046 43.5223 80.0898 44.0605 78.7666C44.0605 78.7666 44.5063 78.8671 44.8427 78.5907C44.8427 78.5907 45.1118 78.7415 44.5735 79.3947C44.5735 79.3947 45.4734 79.3696 45.7005 77.77C45.7005 77.77 45.7678 76.6896 44.767 76.4719C44.767 76.4719 44.8847 75.6176 43.6484 75.4166C43.6484 75.4166 42.9252 75.2994 42.0505 75.9275C42.0505 75.9275 42.143 74.7969 42.8663 73.75C42.8663 73.75 43.3541 74.4451 45.28 75.0481C45.28 75.0481 45.0697 76.0782 45.9864 76.5724C45.9864 76.5724 45.7341 75.3077 46.5499 75.2324C46.5499 75.2324 46.3144 76.4384 47.3573 76.8739C47.3573 76.8739 47.0209 75.5841 47.845 75.1821C47.845 75.1821 50.4269 74.0347 49.4345 71.673C49.4345 71.673 48.3412 69.8556 47.8535 69.261C47.8535 69.261 49.6364 69.0265 52.3528 69.462C52.3528 69.462 54.0769 69.4955 54.4301 72.2509C54.4301 72.2509 54.6235 73.5322 52.7313 74.5875C52.7313 74.5875 55.2122 76.5975 58.5762 76.7315C58.5762 76.7315 57.3652 78.6577 59.249 79.2188C59.249 79.2188 60.1321 79.3947 60.7713 78.8671C60.7713 78.8671 59.9303 79.0178 60.2835 78.5405C60.2835 78.5405 60.7881 78.2725 60.8469 77.6276C60.8469 77.6276 60.9479 77.4182 61.259 77.6276C61.259 77.6276 62.4785 78.0798 63.1429 76.832C63.1429 76.832 63.4961 76.5807 63.3027 77.502C63.3027 77.502 64.3539 77.2507 63.6138 75.6846C63.6138 75.6846 63.4204 75.3496 62.9831 75.2156C62.9831 75.2156 63.8241 75.0565 63.782 74.3195C63.782 74.3195 63.8157 73.9677 64.1185 74.6712C64.1185 74.6712 65.0015 73.7919 63.5718 73.013C63.5718 73.013 62.6299 72.2927 61.4188 73.3731C61.4188 73.3731 60.8469 72.4937 59.577 73.2894C59.577 73.2894 58.8117 73.9677 59.0724 75.1235C59.0724 75.1235 59.2322 75.626 58.6772 75.157C58.6772 75.157 56.8774 74.3027 56.3308 73.7919C56.3308 73.7919 57.3231 73.1219 57.6595 72.5021C57.6595 72.5021 58.736 73.0297 59.3668 72.0582C59.3668 72.0582 58.5678 72.1587 58.4249 71.4552C58.4249 71.4552 59.5182 71.3966 59.8125 70.4251C59.8125 70.4251 58.5342 70.9695 57.9455 69.6881C57.9455 69.6881 57.0624 66.2795 51.9996 67.4269C51.9996 67.4269 50.7633 67.6363 51.865 66.8993C51.865 66.8993 56.2046 65.4001 57.239 63.2143C57.239 63.2143 59.905 64.7553 60.8385 65.1573C60.8385 65.1573 61.7636 65.7268 63.2102 64.3784C63.2102 64.3784 63.8157 63.7503 64.211 64.1606C64.211 64.1606 64.3455 64.7804 64.6819 64.7469C64.6819 64.7469 64.724 64.9144 64.3455 65.0484C64.3455 65.0484 64.9679 65.5676 65.1445 64.7469C65.1445 64.7469 65.6491 64.4705 65.2454 63.7251C65.2454 63.7251 65.0688 63.2394 63.74 63.3231C63.74 63.3231 63.2354 63.3399 63.5213 62.9379C63.5213 62.9379 63.7232 62.762 64.3035 62.9965C64.3035 62.9965 65.4641 63.5995 65.7921 63.1975C65.7921 63.1975 66.0107 63.1975 65.8846 63.566C65.8846 63.566 66.8265 63.1724 65.9266 62.6699C65.9266 62.6699 65.9098 62.1088 64.9426 61.9915C64.9426 61.9915 64.3203 61.958 63.8241 62.0836C63.8241 62.0836 62.8485 62.2595 63.1597 61.8826C63.1597 61.8826 63.3784 61.5141 63.7905 61.7235C63.7905 61.7235 64.6735 61.8994 64.8501 61.489C64.8501 61.489 65.2454 61.3131 65.3127 61.6063C65.3127 61.6063 65.4304 61.824 65.4725 61.355C65.4725 61.355 65.3968 61.0033 64.9426 61.0368C64.9426 61.0368 64.8501 60.5092 63.597 60.7102C63.597 60.7102 63.2859 60.6683 62.7224 61.2964C62.7224 61.2964 62.5121 61.6146 62.2598 61.7654C62.2598 61.7654 61.8057 61.9413 61.8057 62.2176C61.8057 62.2176 61.1581 62.6615 60.6535 62.4103C60.6535 62.4103 58.5762 60.4003 58.2651 59.9815C58.2651 59.9815 58.1305 59.7638 58.3071 59.6884C58.3071 59.6884 60.4012 58.6164 61.3179 57.8794C61.3179 57.8794 61.688 57.7454 61.7468 57.8794C61.7468 57.8794 62.2598 58.2312 62.6467 57.9213C62.6467 57.9213 62.8822 57.7873 62.9747 57.9548C62.9747 57.9548 63.8157 58.6332 64.581 58.0134C64.581 58.0134 65.2622 57.9213 65.1529 57.2932C65.1529 57.2932 65.1529 57.0838 64.9174 57.3853L64.7576 57.4104C64.7576 57.4104 64.6567 56.8828 63.9503 57.2094C63.9503 57.2094 63.3868 57.6617 63.4036 56.9079C63.4036 56.9079 63.4625 56.4724 63.8746 56.3468C63.8746 56.3468 64.1437 56.2798 64.4464 55.9783C64.4464 55.9783 64.7997 55.8275 64.9763 56.0369C64.9763 56.0369 65.1949 56.4808 65.8509 56.4222C65.8509 56.4222 65.9855 56.4389 65.8089 56.598C65.8089 56.598 65.6575 56.8325 66.0107 56.6902C66.0107 56.6902 66.5321 56.4222 66.221 56.0285C66.221 56.0285 66.1621 55.2245 64.909 55.3418C64.909 55.3418 64.0091 55.459 64.4044 55.0822C64.4044 55.0822 64.6567 54.8142 65.0856 54.9817C65.0856 54.9817 65.9266 55.392 66.2546 55.2748C66.2546 55.2748 66.406 55.2915 66.3219 55.4758C66.3219 55.4758 66.4312 55.7522 66.6499 55.2999C66.6499 55.2999 66.7928 55.0654 66.6499 54.9314L66.6667 54.9398ZM53.9003 51.8913L53.362 51.3972C53.362 51.3972 53.2443 51.2548 53.4798 51.2632C53.4798 51.2632 53.8078 51.2632 54.0601 51.3553C54.1105 51.3804 54.161 51.3972 54.203 51.4307C54.203 51.4307 54.3796 51.3888 54.2619 51.7238L54.203 51.9164C54.203 51.9164 54.1778 52.1593 53.9255 51.9164L53.9003 51.8913Z" fill="white" fill-opacity="0.8"/>
<path d="M37.0461 19.1619H31.916V40.5683H37.0461V19.1619Z" fill="white" fill-opacity="0.8"/>
<path d="M45.2375 40.5683C45.0105 39.8062 41.6969 28.7847 41.6969 28.7847C41.6969 28.7847 44.6572 19.9324 44.9095 19.1619H40.2167C40.0822 19.5806 37.2816 28.7763 37.1387 29.2537C37.2816 29.7813 39.8719 40.1077 39.9897 40.5683H45.2375Z" fill="white" fill-opacity="0.8"/>
<path d="M54.4054 33.9017C54.4054 35.9536 54.2288 36.5231 54.0774 36.766C53.8251 37.1931 53.228 37.4025 52.2608 37.4025H51.9329V22.3192H52.2608C52.9589 22.3192 53.4382 22.4029 53.7074 22.5453C54.0269 22.7463 54.2288 23.0059 54.3129 23.3995L54.4054 25.3676V33.9101V33.9017ZM59.2664 38.2149C59.4514 37.5867 59.5355 36.2886 59.5355 34.3372V26.6155C59.5355 24.5637 59.4682 23.165 59.3589 22.4867C59.2328 21.8418 58.93 21.222 58.4674 20.6944C57.9881 20.15 57.2984 19.7648 56.3733 19.5387C55.423 19.2958 53.5476 19.1702 50.7975 19.1702H46.8027V40.5766H53.7578C55.1202 40.5766 56.1379 40.5096 56.7938 40.3672C57.433 40.2249 57.9797 39.982 58.4002 39.6302C58.8123 39.2869 59.1066 38.8346 59.2748 38.2232" fill="white" fill-opacity="0.8"/>
<path d="M72.9392 39.0021C73.4606 38.3321 73.7633 37.6789 73.8643 37.0675C73.9652 36.3975 74.0156 35.2417 74.0156 33.5835V19.1702H68.8939V35.0826C68.8939 36.5985 68.8014 37.0675 68.7173 37.2685C68.5828 37.6956 68.2295 37.9301 67.7502 37.9301C67.2708 37.9301 66.968 37.704 66.8251 37.3355C66.7578 37.1261 66.6569 36.7074 66.6569 35.3757V19.1785H61.5352V31.8918C61.5352 34.3707 61.5604 35.9955 61.6613 36.7576C61.7454 37.4695 62.0229 38.1646 62.4939 38.8262C62.948 39.4711 63.6629 40.0239 64.63 40.4175C65.5888 40.8446 66.7157 41.0456 67.9856 41.0456C69.1378 41.0456 70.1386 40.8697 70.9796 40.5347C71.7954 40.183 72.4766 39.6554 72.956 39.0105" fill="white" fill-opacity="0.8"/>
</g>
<defs>
<clipPath id="clip0_257_434">
<rect width="106" height="119" fill="white"/>
</clipPath>
</defs>
</svg>
