<svg width="110" height="35" viewBox="0 0 110 35" fill="none" xmlns="http://www.w3.org/2000/svg">
<path d="M104.679 18.355V10.189C104.679 10.189 101.65 10.189 101.49 10.189C101.49 10.8105 101.797 11.1212 102.097 11.2725V18.347H100.582V10.1811C100.582 10.1811 97.5529 10.1811 97.3994 10.1811C97.3994 10.8025 97.6997 11.1052 98 11.2646V18.347H95.8047V19.8448H109.991V18.347H104.679V18.355Z" fill="#030303"/>
<path d="M38.0014 4.72386C38.0014 3.29781 37.1806 3.39341 37.1806 3.39341H29.6339V4.91506H34.9053C35.2589 4.91506 35.2389 5.32933 35.2389 5.5046C35.2389 7.27322 34.7051 9.24101 32.9435 10.2767C31.7491 10.9937 30.121 11.0813 29.3203 11.153L29.7207 12.6587C31.2754 12.6667 33.8577 12.1807 35.4191 11.0256C37.5543 9.44814 37.988 6.38094 37.988 4.71589" fill="#030303"/>
<path d="M106.436 17.2476L109.191 17.2556V3.36154H96.3867V4.85929H106.436V17.2476Z" fill="#030303"/>
<path d="M73.1366 3.01101C73.1366 3.65631 73.4369 3.97498 73.7305 4.13432V9.1215H72.7496V3.01101H69.48C69.48 3.64038 69.7736 3.95905 70.0672 4.11838V17.3034H65.7834V4.94693H68.9062V3.40138C68.9062 3.40138 62.6406 3.40138 62.4805 3.40138C62.4805 4.04668 62.7874 4.37332 63.0877 4.52469V17.5742C63.0943 18.817 64.222 18.8409 64.2754 18.8409H70.0605V20.7848H72.7362V10.6511H73.7171V20.7848H76.3928V3.01101C76.3928 3.01101 73.2767 3.01101 73.1166 3.01101" fill="#030303"/>
<path d="M55.9256 12.8101H60.0759V10.8822H54.3642V9.04184H59.3286V7.64765H49.3864V4.78759H59.3286V3.39341C59.3286 3.39341 46.1902 3.39341 46.0301 3.39341C46.0301 3.97498 46.3304 4.26179 46.6306 4.40519V7.85479C46.6306 8.98607 47.8184 9.04184 47.8184 9.04184H51.6017V10.8822H45.8633V12.8101H50.1738C50.1738 12.8101 50.1671 12.8101 50.1604 12.8101H55.9322C55.9322 12.8101 55.9322 12.8101 55.9256 12.8101Z" fill="#030303"/>
<path d="M52.9784 19.8686C50.97 19.8686 49.3419 18.7533 49.3419 17.383C49.3419 16.0127 50.97 14.8894 52.9784 14.8894C54.9869 14.8894 56.6217 16.0048 56.6217 17.383C56.6217 18.7613 54.9869 19.8686 52.9784 19.8686ZM52.9784 13.4395C49.4753 13.4395 46.6328 15.1842 46.6328 17.3352C46.6328 19.4862 49.4753 21.231 52.9784 21.231C56.4816 21.231 59.3241 19.4862 59.3241 17.3352C59.3241 15.1842 56.4816 13.4395 52.9784 13.4395Z" fill="#030303"/>
<path d="M42.8899 3.01101H39.5402C39.5402 3.64835 39.8405 3.95905 40.1408 4.11838V5.32933H38.1523V6.85895H40.1408V8.61163H38.1523V10.1492H40.1408V12.8181H42.8899V3.01101Z" fill="#030303"/>
<path d="M36.6152 19.8686C34.6 19.8686 32.9719 18.7533 32.9719 17.383C32.9719 16.0127 34.6 14.8894 36.6152 14.8894C38.6303 14.8894 40.2584 16.0048 40.2584 17.383C40.2584 18.7613 38.6303 19.8686 36.6152 19.8686ZM36.6152 13.4395C33.1121 13.4395 30.2695 15.1842 30.2695 17.3352C30.2695 19.4862 33.1121 21.231 36.6152 21.231C40.1183 21.231 42.9608 19.4862 42.9608 17.3352C42.9608 15.1842 40.1183 13.4395 36.6152 13.4395Z" fill="#030303"/>
<path d="M92.8324 7.40069V3.03491C92.8324 3.03491 89.8831 3.03491 89.4961 3.03491C89.4961 3.66428 89.783 3.98295 90.0766 4.15025V13.2005H92.8324V8.94624H94.6874V7.40069H92.8324Z" fill="#030303"/>
<path d="M80.0391 15.8056H90.0813V20.8008H92.8371V14.2601H80.0391V15.8056Z" fill="#030303"/>
<path d="M87.2334 5.59223H88.9349V4.04668H85.5519V2.66047H82.7961V4.04668H79.4531V5.59223H81.0746H87.2334Z" fill="#030303"/>
<path d="M84.178 12.2445C82.8501 12.2445 81.7692 11.1052 81.7692 9.71105C81.7692 9.07371 81.9894 8.49213 82.363 8.046C82.8034 7.51222 83.4507 7.17762 84.178 7.17762C84.8653 7.17762 85.4858 7.48832 85.9262 7.97429C86.3332 8.4284 86.5801 9.04184 86.5801 9.71105C86.5801 11.1132 85.5058 12.2445 84.178 12.2445ZM88.6153 8.89844C88.1882 7.08999 86.3666 5.73564 84.178 5.73564C81.9894 5.73564 80.1544 7.09795 79.734 8.91437C79.674 9.16931 79.6406 9.43221 79.6406 9.70308C79.6406 11.5275 81.0552 13.065 82.9702 13.5271C83.3573 13.6227 83.7576 13.6785 84.178 13.6785C84.5984 13.6785 84.9987 13.6227 85.3857 13.5271C87.3008 13.065 88.7154 11.5275 88.7154 9.70308C88.7154 9.42424 88.682 9.15337 88.6219 8.89844" fill="#030303"/>
<path d="M31.0145 23.0793H29.4531V30.8787H31.0145V23.0793Z" fill="#030303"/>
<path d="M33.5052 30.8787C33.4384 30.5999 32.4309 26.5846 32.4309 26.5846C32.4309 26.5846 33.3317 23.3581 33.4051 23.0793H31.9771C31.9371 23.2306 31.083 26.5846 31.043 26.7599C31.0897 26.9511 31.877 30.7194 31.9104 30.8867H33.5052V30.8787Z" fill="#030303"/>
<path d="M36.09 23.0793C35.8764 24.2902 35.7163 25.3259 35.6095 26.1544L35.4894 27.1742L35.4227 26.1465C35.3893 25.6207 35.2492 24.585 35.0157 23.0793H33.6211C33.8146 23.8919 34.8155 28.0585 34.8222 28.0904V30.8867H36.2501C36.2501 30.6716 36.2501 28.0585 36.2501 28.0585C36.2501 28.0585 37.4178 23.3661 37.4912 23.0872H36.0966L36.09 23.0793Z" fill="#030303"/>
<path d="M41.3955 30.3131C41.549 30.0661 41.6424 29.8271 41.6691 29.604C41.7025 29.365 41.7225 28.9428 41.7225 28.3373V23.0793H40.1611V28.8791C40.1611 29.4367 40.1344 29.604 40.1144 29.6757C40.0677 29.8351 39.9609 29.9147 39.8141 29.9147C39.6807 29.9147 39.5806 29.8351 39.5339 29.6996C39.5072 29.62 39.4805 29.4686 39.4805 28.9826V23.0793H37.9258V27.7159C37.9258 28.6162 37.9391 29.2137 37.9658 29.4925C37.9925 29.7554 38.0792 30.0024 38.2194 30.2414C38.3595 30.4804 38.5797 30.6795 38.8666 30.823C39.1602 30.9823 39.5005 31.054 39.8875 31.054C40.2345 31.054 40.5414 30.9903 40.795 30.8628C41.0419 30.7353 41.2487 30.5441 41.4022 30.3051" fill="#030303"/>
<path d="M46.2646 30.8787V23.0793H44.9969V27.3176C44.9969 27.3176 43.8959 23.2306 43.8492 23.0793H42.5547V30.8787H43.8292V26.5368C43.8292 26.5368 44.8634 30.7194 44.9034 30.8787H46.2713H46.2646Z" fill="#030303"/>
<path d="M49.6848 30.3688L49.7983 30.1378C49.7983 30.1378 49.9718 30.7592 50.0051 30.8787H50.9459V26.8077H49.0843V27.7956H49.4313V28.8551C49.4313 29.2455 49.4046 29.5005 49.3579 29.6439C49.2978 29.8191 49.1777 29.9068 49.0109 29.9068C48.8174 29.9068 48.7306 29.7713 48.6906 29.6598C48.6506 29.5323 48.6306 29.2933 48.6306 28.903V25.047C48.6306 24.4814 48.6706 24.3141 48.6973 24.2424C48.7373 24.1388 48.8241 24.0273 49.0042 24.0273C49.2244 24.0273 49.3045 24.1787 49.3312 24.2822C49.3512 24.3619 49.3846 24.5451 49.3846 25.1825V25.7959H50.9393V25.5649C50.9393 24.9196 50.8926 24.4256 50.7858 24.099C50.6924 23.7803 50.4855 23.5015 50.1653 23.2625C49.845 23.0235 49.4379 22.896 48.9442 22.896C48.4504 22.896 48.0367 23.0394 47.7231 23.3103C47.4162 23.5812 47.2293 23.8839 47.1626 24.1946C47.0959 24.5372 47.0625 25.0869 47.0625 25.8437V28.2258L47.1092 29.4606C47.1426 29.7156 47.2226 29.9705 47.3428 30.2015C47.4629 30.4405 47.6497 30.6397 47.8899 30.799C48.1301 30.9584 48.3903 31.038 48.6639 31.038C48.8908 31.038 49.091 30.9823 49.2578 30.8707C49.4179 30.7512 49.5647 30.5839 49.6715 30.3529" fill="#030303"/>
<path d="M54.0743 28.4568C54.0743 29.2057 54.021 29.4128 53.9743 29.5005C53.8942 29.6518 53.714 29.7315 53.4204 29.7315H53.3203V24.2344H53.4204C53.6339 24.2344 53.7807 24.2663 53.8608 24.3141C53.9542 24.3858 54.021 24.4814 54.041 24.6248L54.0677 25.3418V28.4568H54.0743ZM55.5557 30.0263C55.609 29.7952 55.6357 29.3252 55.6357 28.6082V25.7959C55.6357 25.0471 55.6157 24.5372 55.5823 24.2902C55.5423 24.0512 55.4489 23.8281 55.3088 23.6369C55.162 23.4378 54.9551 23.3023 54.6749 23.2147C54.3813 23.1271 53.8141 23.0793 52.98 23.0793H51.7656V30.8787H53.8808C54.2945 30.8787 54.6015 30.8548 54.8017 30.7991C54.9952 30.7513 55.162 30.6556 55.2888 30.5282C55.4155 30.4007 55.5023 30.2414 55.5557 30.0183" fill="#030303"/>
<path d="M58.663 28.7197C58.663 29.2136 58.643 29.5084 58.6097 29.6518C58.563 29.8271 58.4495 29.9227 58.2894 29.9227C58.0759 29.9227 57.9958 29.7713 57.9758 29.6757C57.9491 29.596 57.9224 29.4208 57.9224 28.7755V25.0391C57.9224 24.4495 57.9691 24.2982 58.0091 24.2185C58.0759 24.107 58.1759 24.0512 58.3027 24.0512C58.4495 24.0512 58.5563 24.1309 58.6097 24.2822C58.6364 24.3539 58.6697 24.5212 58.6697 25.047V28.7277L58.663 28.7197ZM59.8908 30.2334C60.0509 29.9705 60.1444 29.6837 60.1711 29.373C60.2044 29.0463 60.2178 28.4648 60.2178 27.6681V26.2898C60.2178 25.4772 60.2044 24.8957 60.1644 24.569C60.1377 24.2583 60.0376 23.9715 59.8708 23.7086C59.7106 23.4457 59.4904 23.2465 59.2169 23.1191C58.9433 22.9836 58.6297 22.9119 58.2827 22.9119C57.9224 22.9119 57.5954 22.9916 57.3219 23.127C57.0483 23.2625 56.8348 23.4696 56.6746 23.7246C56.5211 23.9875 56.4277 24.2822 56.3944 24.5929C56.361 24.9275 56.3477 25.5011 56.3477 26.2898V27.6681C56.3477 28.4887 56.3677 29.0702 56.401 29.3969C56.4344 29.7076 56.5278 29.9944 56.6946 30.2573C56.8614 30.5202 57.0816 30.7273 57.3485 30.8548C57.6221 30.9902 57.9424 31.054 58.2827 31.054C58.6497 31.054 58.97 30.9823 59.2436 30.8389C59.5105 30.7034 59.7307 30.4963 59.8841 30.2334" fill="#030303"/>
<path d="M64.7284 30.8787V23.0793H63.4539V27.3176C63.4539 27.3176 62.3462 23.2306 62.3129 23.0793H61.0117V30.8787H62.2862V26.5368C62.2862 26.5368 63.3271 30.7194 63.3671 30.8787H64.7417H64.7284Z" fill="#030303"/>
<path d="M68.1441 30.3688L68.2509 30.1378C68.2509 30.1378 68.4311 30.7592 68.4577 30.8787H69.3986V26.8077H67.5436V27.7956H67.8906V28.8551C67.8906 29.2455 67.8706 29.5005 67.8172 29.6439C67.7571 29.8191 67.637 29.9068 67.4702 29.9068C67.27 29.9068 67.19 29.7713 67.1499 29.6598C67.1099 29.5323 67.0899 29.2933 67.0899 28.903V25.047C67.0899 24.4814 67.1299 24.3141 67.1566 24.2424C67.1966 24.1388 67.2834 24.0273 67.4635 24.0273C67.6837 24.0273 67.7638 24.1787 67.7905 24.2822C67.8105 24.3619 67.8439 24.5451 67.8439 25.1825V25.7959H69.4053V25.5649C69.4053 24.9196 69.3586 24.4256 69.2585 24.099C69.1584 23.7803 68.9582 23.5015 68.6379 23.2625C68.311 23.0235 67.9039 22.896 67.4168 22.896C66.9297 22.896 66.5094 23.0394 66.1957 23.3103C65.8888 23.5812 65.6953 23.8839 65.6352 24.1946C65.5685 24.5372 65.5352 25.0869 65.5352 25.8437V28.2258L65.5885 29.4606C65.6152 29.7156 65.6953 29.9705 65.8221 30.2015C65.9422 30.4405 66.129 30.6397 66.3692 30.799C66.6094 30.9584 66.8763 31.038 67.1499 31.038C67.3701 31.038 67.577 30.9823 67.7371 30.8707C67.9039 30.7512 68.0441 30.5839 68.1575 30.3529" fill="#030303"/>
<path d="M75.1143 30.3131C75.2744 30.0661 75.3612 29.8271 75.3945 29.604C75.4279 29.365 75.4412 28.9428 75.4412 28.3373V23.0793H73.8865V28.8791C73.8865 29.4367 73.8598 29.604 73.8331 29.6757C73.7931 29.8351 73.6863 29.9147 73.5395 29.9147C73.3994 29.9147 73.2993 29.8351 73.2593 29.6996C73.2326 29.62 73.2059 29.4686 73.2059 28.9826V23.0793H71.6445V27.7159C71.6445 28.6162 71.6512 29.2137 71.6846 29.4925C71.7113 29.7554 71.7913 30.0024 71.9381 30.2414C72.0782 30.4804 72.2918 30.6795 72.5854 30.823C72.8723 30.9823 73.2193 31.054 73.6063 31.054C73.9599 31.054 74.2602 30.9903 74.5137 30.8628C74.7606 30.7353 74.9675 30.5441 75.1143 30.3051" fill="#030303"/>
<path d="M79.985 30.8787V23.0793H78.7106V27.3176C78.7106 27.3176 77.6029 23.2306 77.5629 23.0793H76.2617V30.8787H77.5362V26.5368C77.5362 26.5368 78.5771 30.7194 78.6171 30.8787H79.985Z" fill="#030303"/>
<path d="M82.3895 23.0793H80.8281V30.8787H82.3895V23.0793Z" fill="#030303"/>
<path d="M85.5512 23.0793C85.5245 23.4139 85.4444 24.4655 85.4444 24.4655L85.1508 28.6002H84.9573C84.8639 27.0945 84.7105 25.2383 84.5036 23.0793H82.8555C82.8888 23.3342 83.8163 30.6875 83.843 30.8787H86.3252C86.3519 30.6795 87.1726 23.3262 87.206 23.0793H85.5512Z" fill="#030303"/>
<path d="M90.2924 27.5088V26.2102H89.1981V24.4575H90.3658V23.0793H87.6367V30.8787H90.4792V29.5084H89.1981V27.5088H90.2924Z" fill="#030303"/>
<path d="M92.6848 24.2344H92.7848C93.0184 24.2344 93.1719 24.2822 93.272 24.3778C93.372 24.4814 93.4187 24.6726 93.4187 24.9594V25.3976C93.4187 25.8039 93.3654 26.0269 93.2519 26.1146C93.1585 26.2022 92.9984 26.2341 92.7782 26.2341H92.6781V24.2185L92.6848 24.2344ZM93.3187 27.4689C93.3587 27.5486 93.4187 27.7239 93.4187 28.3373V30.8867H94.8467V28.887C94.8467 28.0903 94.8267 27.8195 94.8 27.7318C94.78 27.6044 94.7066 27.461 94.5998 27.3016C94.493 27.1423 94.2795 27.0228 93.9592 26.9352L93.3987 26.7679L93.9726 26.6962C94.3195 26.6563 94.5598 26.5448 94.6732 26.3616C94.7866 26.1704 94.8534 25.764 94.8534 25.1665C94.8534 24.5133 94.7666 24.0273 94.5931 23.7405C94.4263 23.4537 94.1994 23.2705 93.9325 23.2067C93.6523 23.1271 93.0918 23.0952 92.2777 23.0952H91.1367V30.8946H92.6914V27.2777H92.7915C93.0718 27.2777 93.2386 27.3415 93.3253 27.4769" fill="#030303"/>
<path d="M99.1533 30.1617C99.2601 29.9068 99.3135 29.5005 99.3135 28.9508C99.3135 28.1939 99.2134 27.6362 99.0332 27.3096C98.8397 26.975 98.3526 26.5209 97.5986 25.9792C97.3184 25.772 97.1382 25.5967 97.0715 25.4454C96.9981 25.294 96.9647 25.0789 96.9647 24.7921C96.9647 24.5611 96.9981 24.3858 97.0581 24.2663C97.1249 24.1309 97.245 24.0592 97.3784 24.0592C97.5386 24.0592 97.6186 24.1548 97.6653 24.2265C97.6987 24.2902 97.7454 24.4177 97.7454 24.816V25.286H99.1733V25.0869C99.1733 24.4655 99.1266 24.0353 99.0265 23.7883C98.9331 23.5493 98.733 23.3422 98.4394 23.1828C98.1324 23.0155 97.7588 22.9279 97.325 22.9279C96.9247 22.9279 96.5844 22.9996 96.3041 23.1589C96.0306 23.3103 95.8304 23.5095 95.7103 23.7724C95.5835 24.0432 95.5234 24.4734 95.5234 25.063C95.5234 25.4693 95.5701 25.8119 95.6569 26.0748C95.7436 26.3297 95.8504 26.5368 95.9838 26.6802C96.1173 26.8316 96.4042 27.0786 96.8313 27.4211C97.2717 27.7637 97.5452 28.0186 97.6653 28.17C97.7921 28.3453 97.8522 28.6719 97.8522 29.1738C97.8522 29.4128 97.8188 29.5881 97.7521 29.7156C97.672 29.859 97.5586 29.9307 97.4118 29.9307C97.265 29.9307 97.1515 29.8669 97.0848 29.7474C97.0448 29.6837 96.9981 29.5403 96.9981 29.1101V28.2497H95.5702V28.656C95.5702 29.2455 95.6235 29.6996 95.7169 30.0103C95.8104 30.3051 96.0172 30.568 96.3241 30.7592C96.6378 30.9663 97.0181 31.0619 97.4718 31.0619C97.8789 31.0619 98.2392 30.9743 98.5461 30.799C98.8464 30.6238 99.0466 30.4166 99.1467 30.1697" fill="#030303"/>
<path d="M101.563 23.0793H100.008V30.8787H101.563V23.0793Z" fill="#030303"/>
<path d="M105.747 23.0793H102.117V24.4575H103.151V30.8787H104.713V24.4575H105.747V23.0793Z" fill="#030303"/>
<path d="M108.609 23.0793C108.396 24.2902 108.236 25.3259 108.136 26.1544L108.009 27.1821L107.942 26.1465C107.909 25.6207 107.769 24.585 107.535 23.0793H106.141C106.334 23.8919 107.335 28.0585 107.335 28.0904V30.8867H108.763C108.763 30.6716 108.763 28.0585 108.763 28.0585C108.763 28.0585 109.931 23.3661 109.997 23.0872H108.609V23.0793Z" fill="#030303"/>
<path d="M12.624 29.6678C6.1449 29.5483 3.32907 23.868 3.32907 23.868L1.09375 26.7201C1.09375 26.7201 4.61021 33.5316 12.624 33.7388C20.6378 33.5396 24.1542 26.7201 24.1542 26.7201L21.9189 23.868C21.9189 23.868 19.1031 29.5483 12.624 29.6678Z" fill="#E6002D"/>
<path d="M22.8386 18.4665C22.2514 21.0716 21.4574 22.8084 20.1562 24.6646C21.3974 24.1149 21.8644 23.39 21.8778 23.374L23.6594 25.6366C24.4534 24.107 24.9338 22.2109 25.0072 21.2628L22.832 18.4745L22.8386 18.4665Z" fill="#E6002D"/>
<path d="M4.15387 26.6802L4.64097 27.1582L4.10716 28.5444L5.08136 27.5964L5.56846 28.0824L4.44079 29.8351L4.12718 29.5244L4.98127 28.1939L3.85361 29.2615L3.60005 29.0145L4.18723 27.4211L3.33314 28.7516L3.01953 28.4409L4.1472 26.6882L4.15387 26.6802Z" fill="#FAFBFB"/>
<path d="M6.10372 28.4409L6.47738 28.7038L6.11039 31.0301L5.72338 30.7592L5.79678 30.3529L5.303 30.0024L5.05612 30.2892L4.67578 30.0183L6.10372 28.4409ZM5.56991 29.6837L5.89019 29.9147L6.05034 29.1181L5.57658 29.6837H5.56991Z" fill="#FAFBFB"/>
<path d="M7.02045 29.0703L7.42748 29.2774L7.52757 30.8229L7.95461 29.5483L8.3216 29.7395L7.63433 31.8188L7.2273 31.6116L7.13388 30.0502L6.70684 31.3408L6.33984 31.1496L7.02712 29.0782L7.02045 29.0703Z" fill="#FAFBFB"/>
<path d="M8.99983 30.6875C9.05988 30.56 9.1266 30.4485 9.21335 30.3609C9.30009 30.2732 9.39351 30.2175 9.50694 30.1776C9.6137 30.1458 9.73381 30.1458 9.85392 30.1776C9.97402 30.2095 10.0808 30.2653 10.1675 30.3529C10.2543 30.4405 10.3277 30.5441 10.3744 30.6636C10.4278 30.7831 10.4545 30.9185 10.4678 31.0699C10.4811 31.2213 10.4678 31.3726 10.4478 31.532C10.4211 31.6913 10.3744 31.8347 10.321 31.9622C10.2609 32.0897 10.1875 32.2012 10.1075 32.2888C10.0207 32.3765 9.92732 32.4402 9.81388 32.4721C9.70712 32.5039 9.59369 32.5039 9.46691 32.4721C9.3468 32.4402 9.24004 32.3844 9.15329 32.2968C9.06655 32.2092 8.99315 32.1136 8.94644 31.9861C8.89306 31.8666 8.86637 31.7312 8.85303 31.5798C8.83968 31.4284 8.85303 31.277 8.87305 31.1177C8.89974 30.9584 8.94644 30.815 8.99983 30.6875ZM9.26673 31.4762C9.26673 31.5559 9.28007 31.6355 9.30009 31.6993C9.32011 31.771 9.3468 31.8268 9.39351 31.8746C9.43354 31.9224 9.48692 31.9542 9.55365 31.9702C9.62038 31.9861 9.67376 31.9861 9.72714 31.9622C9.78052 31.9383 9.82723 31.8985 9.86726 31.8507C9.9073 31.7949 9.94066 31.7311 9.96735 31.6594C9.99404 31.5877 10.0141 31.5081 10.0274 31.4204C10.0407 31.3328 10.0474 31.2531 10.0474 31.1735C10.0474 31.0938 10.0341 31.0141 10.0141 30.9504C9.99404 30.8787 9.96735 30.8229 9.92064 30.7751C9.88061 30.7273 9.82723 30.6955 9.7605 30.6795C9.69377 30.6636 9.64039 30.6636 9.58701 30.6875C9.53363 30.7114 9.48692 30.7512 9.44689 30.807C9.40685 30.8628 9.37349 30.9265 9.3468 30.9982C9.32011 31.0699 9.30009 31.1496 9.28675 31.2372C9.2734 31.3248 9.26673 31.4045 9.26673 31.4842V31.4762Z" fill="#FAFBFB"/>
<path d="M10.7684 30.4405L11.9628 30.576L11.9294 31.046L11.1554 30.9584L11.122 31.4125L11.7893 31.4921L11.7559 31.9462L11.0887 31.8666L11.0219 32.727L10.6016 32.6792L10.7684 30.4485V30.4405Z" fill="#FAFBFB"/>
<path d="M12.7176 30.6397L13.3382 30.568L13.7318 32.0259L13.892 30.5043L14.5125 30.4326L14.686 32.6633L14.2857 32.7111L14.1522 31.0141L13.9454 32.7509L13.6251 32.7907L13.1513 31.1336L13.2848 32.8306L12.8844 32.8784L12.7109 30.6477L12.7176 30.6397Z" fill="#FAFBFB"/>
<path d="M14.7109 30.337L15.1246 30.2254L15.505 32.4163L15.0913 32.5278L14.7176 30.337H14.7109Z" fill="#FAFBFB"/>
<path d="M16.0007 31.4921C16.034 31.6116 16.0808 31.6833 16.1475 31.7232C16.2075 31.755 16.2876 31.755 16.381 31.7232C16.4477 31.6993 16.5011 31.6594 16.5412 31.6037C16.5812 31.5479 16.5945 31.4842 16.5745 31.4125C16.5612 31.3408 16.5211 31.3009 16.4544 31.285C16.3944 31.2691 16.301 31.2611 16.1808 31.2611C16.1208 31.2611 16.0741 31.2611 16.0474 31.2611C15.974 31.2611 15.9073 31.2531 15.8539 31.2452C15.7938 31.2372 15.7405 31.2133 15.6871 31.1814C15.6337 31.1496 15.587 31.1018 15.5403 31.046C15.5002 30.9823 15.4669 30.9106 15.4469 30.815C15.4202 30.7034 15.4135 30.5999 15.4335 30.5043C15.4535 30.4087 15.4802 30.321 15.5336 30.2414C15.5803 30.1697 15.6404 30.098 15.7071 30.0502C15.7738 29.9944 15.8472 29.9546 15.9273 29.9307C16.0074 29.8988 16.0874 29.8829 16.1675 29.8829C16.2476 29.8829 16.3276 29.8988 16.401 29.9386C16.4744 29.9785 16.5412 30.0342 16.5945 30.1059C16.6479 30.1776 16.6946 30.2812 16.7213 30.3927L16.3143 30.5441C16.2943 30.4485 16.2542 30.3927 16.1942 30.3768C16.1341 30.3529 16.0741 30.3529 16.0007 30.3768C15.9473 30.3927 15.9073 30.4246 15.8739 30.4724C15.8405 30.5122 15.8339 30.568 15.8472 30.6317C15.8606 30.6875 15.8939 30.7273 15.954 30.7353C16.014 30.7512 16.1008 30.7512 16.2142 30.7433C16.2743 30.7433 16.3276 30.7433 16.3677 30.7433C16.4411 30.7433 16.5078 30.7512 16.5612 30.7592C16.6212 30.7751 16.6746 30.7911 16.728 30.8229C16.7814 30.8548 16.8281 30.9026 16.8681 30.9584C16.9082 31.0221 16.9415 31.0938 16.9615 31.1894C16.9949 31.3169 17.0016 31.4364 16.9882 31.5479C16.9749 31.6515 16.9415 31.7471 16.8881 31.8267C16.8414 31.9064 16.7747 31.9701 16.7013 32.0259C16.6279 32.0817 16.5412 32.1215 16.4544 32.1613C16.361 32.1932 16.2676 32.2091 16.1808 32.2171C16.0941 32.2171 16.0074 32.2012 15.934 32.1613C15.8539 32.1215 15.7872 32.0657 15.7271 31.9781C15.6671 31.8905 15.6203 31.7869 15.587 31.6515L15.994 31.5001L16.0007 31.4921Z" fill="#FAFBFB"/>
<path d="M17.4729 30.8787C17.5196 30.9902 17.573 31.0619 17.633 31.0858C17.6997 31.1097 17.7731 31.1018 17.8666 31.054C17.9333 31.0221 17.98 30.9743 18.02 30.9106C18.0534 30.8468 18.0601 30.7831 18.04 30.7114C18.0134 30.6397 17.9733 30.6078 17.9133 30.5999C17.8532 30.5999 17.7598 30.5999 17.6397 30.6158C17.5796 30.6238 17.5396 30.6317 17.5129 30.6317C17.4395 30.6397 17.3728 30.6397 17.3194 30.6317C17.2594 30.6317 17.206 30.6158 17.1459 30.5919C17.0859 30.568 17.0392 30.5282 16.9924 30.4724C16.9457 30.4166 16.9057 30.3449 16.8723 30.2573C16.839 30.1458 16.819 30.0422 16.8323 29.9466C16.839 29.851 16.8657 29.7554 16.9057 29.6757C16.9457 29.5961 16.9991 29.5244 17.0658 29.4606C17.1326 29.3969 17.1993 29.3491 17.2727 29.3092C17.3528 29.2694 17.4262 29.2455 17.5062 29.2296C17.5863 29.2216 17.6664 29.2296 17.7398 29.2535C17.8132 29.2774 17.8866 29.3252 17.9466 29.3969C18.0067 29.4606 18.0601 29.5562 18.1001 29.6678L17.7064 29.8749C17.6731 29.7873 17.633 29.7315 17.573 29.7235C17.5129 29.7076 17.4462 29.7235 17.3795 29.7554C17.3261 29.7793 17.2927 29.8191 17.2594 29.8669C17.2327 29.9147 17.226 29.9705 17.246 30.0342C17.266 30.09 17.3061 30.1219 17.3594 30.1298C17.4195 30.1298 17.5062 30.1298 17.6197 30.1059C17.6797 30.098 17.7331 30.09 17.7731 30.082C17.8465 30.0741 17.9133 30.0741 17.9666 30.082C18.0267 30.082 18.0801 30.098 18.1401 30.1219C18.2002 30.1458 18.2469 30.1856 18.2936 30.2414C18.3403 30.2971 18.3803 30.3688 18.407 30.4565C18.4471 30.5839 18.4671 30.6955 18.4604 30.807C18.4604 30.9185 18.4337 31.0141 18.387 31.1018C18.347 31.1894 18.2869 31.2611 18.2202 31.3248C18.1535 31.3886 18.0734 31.4443 17.9867 31.4921C17.8999 31.5399 17.8065 31.5718 17.7198 31.5798C17.633 31.5957 17.5463 31.5798 17.4662 31.5559C17.3861 31.532 17.3127 31.4762 17.246 31.3965C17.1793 31.3169 17.1259 31.2213 17.0792 31.0938L17.4729 30.8867V30.8787Z" fill="#FAFBFB"/>
<path d="M18.0273 28.9428L18.4077 28.7038L19.2351 30.6955L18.8547 30.9345L18.0273 28.9428Z" fill="#FAFBFB"/>
<path d="M18.8718 29.1659C18.8451 29.0225 18.8317 28.8791 18.8451 28.7436C18.8584 28.6082 18.8918 28.4807 18.9518 28.3692C19.0119 28.2497 19.092 28.1541 19.1987 28.0665C19.3055 27.9868 19.4122 27.939 19.5257 27.9231C19.6391 27.9071 19.7459 27.9231 19.846 27.9709C19.9527 28.0187 20.0461 28.0824 20.1396 28.186C20.233 28.2816 20.313 28.4011 20.3798 28.5365C20.4532 28.6719 20.4999 28.8153 20.5332 28.9587C20.5599 29.1021 20.5733 29.2455 20.5599 29.381C20.5466 29.5164 20.5132 29.6439 20.4532 29.7554C20.3931 29.8749 20.313 29.9705 20.2063 30.0581C20.0995 30.1378 19.9928 30.1856 19.8793 30.2015C19.7659 30.2175 19.6591 30.2015 19.559 30.1537C19.4523 30.1059 19.3589 30.0342 19.2655 29.9386C19.172 29.843 19.092 29.7235 19.0252 29.5881C18.9585 29.4527 18.9051 29.3093 18.8718 29.1659ZM19.5123 29.5084C19.559 29.5642 19.6058 29.612 19.6591 29.6439C19.7125 29.6757 19.7659 29.6917 19.8259 29.6917C19.886 29.6917 19.9394 29.6678 19.9928 29.6279C20.0461 29.5881 20.0862 29.5323 20.1129 29.4686C20.1396 29.4049 20.1529 29.3332 20.1529 29.2615C20.1529 29.1898 20.1396 29.1101 20.1195 29.0384C20.0995 28.9667 20.0662 28.887 20.0328 28.8153C19.9928 28.7436 19.9527 28.6799 19.906 28.6162C19.8593 28.5604 19.8126 28.5126 19.7592 28.4807C19.7058 28.4489 19.6525 28.4329 19.5924 28.4329C19.5324 28.4329 19.479 28.4568 19.4256 28.4967C19.3722 28.5365 19.3322 28.5923 19.3055 28.656C19.2788 28.7197 19.2655 28.7835 19.2721 28.8631C19.2721 28.9348 19.2855 29.0145 19.3055 29.0862C19.3255 29.1659 19.3589 29.2376 19.3922 29.3093C19.4323 29.381 19.4723 29.4447 19.519 29.5084H19.5123Z" fill="#FAFBFB"/>
<path d="M20.0078 27.4849L20.3481 27.1503L21.4891 27.7956L20.7952 26.7121L21.1088 26.4014L22.2365 28.1541L21.8962 28.4887L20.7485 27.8354L21.4558 28.9348L21.1422 29.2455L20.0145 27.4928L20.0078 27.4849Z" fill="#FAFBFB"/>
<path d="M4.892 25.5968L5.35908 25.071C4.81193 24.8718 4.2114 24.5133 3.87109 24.2743C4.14467 24.6726 4.59173 25.2383 4.892 25.5968Z" fill="#E6002D"/>
<path d="M21.3864 24.2822C21.0461 24.5212 20.4456 24.8797 19.8984 25.0789L20.3655 25.6047C20.6658 25.2462 21.1129 24.6806 21.3864 24.2822Z" fill="#E6002D"/>
<path d="M22.6626 18.2116C22.6626 18.2116 22.4491 17.8929 22.3023 17.8849C22.2356 17.8849 22.1021 17.8371 21.982 18.1797C21.8485 18.5621 22.1221 18.9445 22.1221 18.9445L22.389 19.3269L22.6626 18.2116Z" fill="#E6002D"/>
<path d="M3.13814 18.9445C3.13814 18.9445 3.41838 18.5621 3.27826 18.1797C3.15815 17.8371 3.01803 17.8849 2.95798 17.8849C2.81118 17.8849 2.59766 18.2116 2.59766 18.2116L2.87123 19.3269L3.13814 18.9445Z" fill="#E6002D"/>
<path d="M3.3744 23.374C3.3744 23.374 3.85483 24.1149 5.09593 24.6646C3.79477 22.8084 3.00073 21.0716 2.41355 18.4665L0.238281 21.2549C0.31168 22.2029 0.798779 24.099 1.58614 25.6286L3.36773 23.3661L3.3744 23.374Z" fill="#E6002D"/>
<path d="M22.867 18.0841C22.867 18.0841 22.6801 17.8451 22.6735 17.8371C22.52 17.6539 22.3932 17.63 22.3398 17.63C22.0529 17.6141 21.8728 17.8929 21.806 18.0761C21.6125 18.6577 21.9395 19.1198 21.9862 19.1915C22.0062 19.2234 22.1397 19.4225 22.3065 19.6217C21.7793 21.6213 20.8452 23.4139 19.6041 24.9036L19.4773 25.063L20.1579 25.8198C18.1361 28.0664 15.4604 29.3491 12.6379 29.3491C9.81538 29.3491 7.13967 28.0664 5.11788 25.8198L5.79848 25.063L5.6717 24.9036C4.42393 23.4139 3.49644 21.6213 2.9693 19.6217C3.12945 19.4225 3.2629 19.2234 3.28959 19.1915C3.34297 19.1278 3.66325 18.6657 3.46975 18.0761C3.40302 17.8929 3.22286 17.6141 2.93594 17.63C2.88256 17.63 2.76245 17.6459 2.60231 17.8371L2.40881 18.0841L0 21.1513C0 21.1513 0.286922 23.7963 1.41459 25.8597L0.767348 26.6882L0.847419 26.8316C3.26957 31.1655 8.01378 34.0734 12.6446 34.0734C17.2753 34.0734 22.0196 31.1655 24.4484 26.8316L24.5285 26.6882L23.8812 25.8597C25.0089 23.7963 25.2958 21.1513 25.2958 21.1513L22.887 18.0841H22.867ZM22.1196 18.9445C22.1196 18.9445 21.8394 18.5621 21.9795 18.1797C22.0996 17.8371 22.2398 17.8849 22.2998 17.8849C22.4466 17.8849 22.6601 18.2116 22.6601 18.2116L22.3865 19.3269L22.1196 18.9445ZM19.8977 25.0709C20.4448 24.8718 21.0454 24.5133 21.3857 24.2743C21.1121 24.6726 20.665 25.2382 20.3648 25.5968L19.8977 25.0709ZM4.89101 25.5968C4.59074 25.2382 4.14368 24.6726 3.8701 24.2743C4.21041 24.5133 4.81094 24.8718 5.35809 25.0709L4.89101 25.5968ZM2.95596 17.8849C3.02268 17.8849 3.15614 17.8371 3.27624 18.1797C3.41637 18.5621 3.13612 18.9445 3.13612 18.9445L2.86921 19.3269L2.59564 18.2116C2.59564 18.2116 2.80916 17.8929 2.95596 17.8849ZM0.240213 21.2549L2.41548 18.4665C3.00267 21.0716 3.7967 22.8084 5.09786 24.6646C3.85676 24.1149 3.38968 23.39 3.37633 23.374L1.59475 25.6366C0.800711 24.107 0.320284 22.2109 0.246886 21.2628L0.240213 21.2549ZM24.1548 26.728C24.1548 26.728 20.6383 33.5396 12.6245 33.7467C4.61076 33.5476 1.09431 26.728 1.09431 26.728L3.32962 23.8759C3.32962 23.8759 6.14546 29.5562 12.6245 29.6757C19.1036 29.5562 21.9195 23.8759 21.9195 23.8759L24.1548 26.728ZM23.661 25.6366L21.8794 23.374C21.8794 23.374 21.399 24.1149 20.1579 24.6646C21.4591 22.8084 22.2531 21.0716 22.8403 18.4665L25.0155 21.2549C24.9422 22.2029 24.4551 24.099 23.6677 25.6286L23.661 25.6366Z" fill="#CCCCCC"/>
<path d="M21.8906 23.3504L21.9528 23.4247L21.8975 23.3422L21.8906 23.3504Z" fill="#CCCCCC"/>
<path d="M21.8891 23.3422L21.8477 23.4164C21.8477 23.4164 21.8822 23.3669 21.8891 23.3504V23.3422Z" fill="#CCCCCC"/>
<path d="M3.35938 23.3504C3.35938 23.3504 3.3801 23.3917 3.40083 23.4164L3.35938 23.3422V23.3504Z" fill="#CCCCCC"/>
<path d="M12.6163 28.9906C13.5438 28.417 23.7929 24.5611 21.7978 12.834C20.9971 8.10176 22.3049 3.68021 22.7053 2.30993C22.1781 2.34977 21.4775 2.38163 20.6768 2.38163C17.9877 2.38163 14.5046 1.76023 12.6163 0.0234756C10.728 1.76023 7.23819 2.38163 4.55581 2.38163C3.7551 2.38163 3.04781 2.34977 2.52734 2.30993C2.9277 3.68021 4.23553 8.10176 3.43482 12.834C1.44638 24.5611 11.6955 28.417 12.6163 28.9906Z" fill="url(#paint0_radial_306_1299)"/>
<path d="M12.6163 0.828118C15.1853 2.86761 19.4023 3.03491 20.6768 3.03491C21.0905 3.03491 21.5109 3.02694 21.9312 3.01101C21.3908 4.99473 20.5634 8.8347 21.264 12.9615C21.998 17.2715 21.0772 20.9601 18.5482 23.9397C16.4864 26.3616 13.9375 27.6203 12.8498 28.162C12.7631 28.2019 12.683 28.2417 12.6163 28.2815C12.5496 28.2497 12.4762 28.2098 12.3828 28.162C11.2951 27.6203 8.75287 26.3616 6.68437 23.9397C4.14878 20.9681 3.23464 17.2715 3.96862 12.9615C4.66925 8.8347 3.83517 4.99473 3.30136 3.01101C3.72174 3.02694 4.14211 3.03491 4.55581 3.03491C5.83028 3.03491 10.054 2.86761 12.6163 0.828118ZM12.6163 0.0234756C10.728 1.76023 7.23819 2.38163 4.55581 2.38163C3.7551 2.38163 3.04781 2.34977 2.52734 2.30993C2.9277 3.68021 4.23553 8.10176 3.43482 12.834C1.44638 24.5611 11.6955 28.417 12.6163 28.9906C13.5438 28.417 23.7929 24.5611 21.7978 12.834C20.9971 8.10176 22.3049 3.68021 22.7053 2.30993C22.1781 2.34977 21.4775 2.38163 20.6768 2.38163C17.9877 2.38163 14.5046 1.76023 12.6163 0.0234756Z" fill="#DCDDDD"/>
<path d="M15.892 15.7419C15.892 15.7419 15.8853 15.6622 15.852 15.6224C15.852 15.6224 15.7452 15.4471 15.3916 15.5666C15.3916 15.5666 15.2181 15.6622 15.2314 15.5188C15.2314 15.5188 15.2314 15.4312 15.3715 15.463C15.3715 15.463 15.5917 15.4949 15.6718 15.4152C15.6718 15.4152 15.7385 15.4152 15.7185 15.471C15.7185 15.471 15.7052 15.5268 15.7852 15.4471C15.7852 15.4471 15.8253 15.3276 15.6985 15.2957C15.6985 15.2957 15.6585 15.0886 15.3115 15.1842C15.3115 15.1842 15.2314 15.2161 15.1447 15.3117L15.1046 15.3515C14.9845 15.3515 14.8044 15.718 14.8044 15.718C14.6976 15.8932 14.5908 15.9331 14.5908 15.9331L13.5232 16.3075C13.4098 16.3474 13.3631 16.2757 13.3631 16.2757L13.2096 16.1004C13.1696 16.0526 13.2964 16.0685 13.2964 16.0685C13.4098 16.0845 13.4231 15.9968 13.4231 15.9968C13.5499 15.7339 13.4231 15.7817 13.4231 15.7817C13.3497 15.7976 12.9561 15.8454 12.9561 15.8454C12.836 15.8375 12.8827 15.6622 12.8827 15.6622C12.9427 15.4869 13.0094 15.3754 13.0094 15.3754C13.243 15.1125 13.5633 15.5427 13.5633 15.5427C13.7034 15.2718 13.7101 15.0408 13.7101 15.0408C13.7234 14.7699 13.2363 14.7381 13.2363 14.7381V14.6504C13.2363 14.5628 13.1095 14.515 12.9494 14.4831C12.6958 14.4353 12.3555 14.4513 12.3555 14.4513C12.3555 14.4513 12.3755 14.2362 12.1954 14.1884C12.1954 14.1884 11.9819 14.1485 12.0219 14.4433H11.9885C11.9885 14.4433 11.9151 14.2043 11.6816 14.2362C11.6816 14.2362 11.4481 14.276 11.4614 14.5309C11.4614 14.5309 11.4881 14.6982 11.6282 14.6982C11.6282 14.6982 11.3413 14.8018 11.1945 15.1364C11.1811 15.1683 11.1678 15.1922 11.1611 15.224C11.1611 15.224 11.0677 15.8295 10.7608 15.8853C10.7608 15.8853 10.8609 16.0446 11.1411 15.8693C11.1411 15.8693 11.2012 16.2279 10.9142 16.7218C10.9142 16.7218 10.8809 16.8094 10.9943 16.7218C10.9943 16.7218 11.1545 16.6023 11.2345 16.4111C11.2345 16.4111 11.4547 16.7616 11.1811 17.391C11.1811 17.391 11.1077 17.5503 11.2545 17.4308C11.2545 17.4308 11.4347 17.2635 11.4881 16.9449C11.4881 16.9449 11.5214 16.8811 11.5348 16.9608C11.5348 16.9608 11.6349 17.383 11.5748 17.9885C11.5748 17.9885 11.5748 18.0841 11.6349 17.9885C11.6349 17.9885 11.755 17.8292 11.8017 17.3512C11.8017 17.3512 11.815 17.2795 11.8417 17.3751C11.8417 17.3751 11.9885 17.638 11.9552 18.2275C11.9552 18.2275 11.9552 18.5063 11.7416 18.6896C11.7416 18.6896 11.1611 19.0162 10.9476 19.4703C10.9476 19.4703 10.7408 19.6934 10.4805 19.7412C10.4805 19.7412 10.0201 19.8448 10.1336 19.072C10.1336 19.072 10.307 18.1717 10.4605 17.8053C10.4605 17.8053 10.7274 17.0405 10.694 16.3633C10.694 16.3633 10.6674 15.7259 10.1602 15.6702C10.1602 15.6702 9.96006 15.5905 9.73319 15.9331C9.73319 15.9331 9.62643 16.188 9.79992 16.427L9.77323 16.443C9.77323 16.443 9.71985 16.3633 9.55304 16.3872C9.55304 16.3872 9.25944 16.4589 9.37955 16.8652C9.37955 16.8652 9.41291 16.9767 9.49298 17.0325C9.49298 17.0325 9.7065 17.2237 9.75989 17.3193C9.75989 17.3193 9.87332 17.4946 9.87332 17.7097C9.87332 17.7097 10.247 17.3273 10.3004 16.7377C10.3004 16.7377 10.3537 16.4191 10.0735 16.3314C10.0735 16.3314 9.94005 16.3075 9.87999 16.4509C9.87999 16.4509 9.66647 16.1084 10.0602 15.957C10.0602 15.957 10.5806 15.8853 10.4805 17.0166C10.4805 17.0166 10.4338 17.4308 10.3004 17.8531C10.3004 17.8531 10.0201 18.6975 9.96006 18.9604C9.96006 18.9604 9.74654 20.0041 10.3471 20.02C10.3471 20.02 10.6273 20.0678 10.9009 19.7571C10.9009 19.7571 11.001 20.0997 10.981 20.5379C10.981 20.5379 10.8876 21.0398 10.3871 20.6335C10.3871 20.6335 10.0868 20.3626 9.73987 19.9802C9.73987 19.9802 9.69983 19.9563 9.69983 20.0439C9.69983 20.0439 9.5864 21.0876 9.66647 21.7886C9.66647 21.7886 9.01255 22.0595 9.56638 22.7128C9.56638 22.7128 9.53969 22.5933 9.55304 22.5296C9.55304 22.5296 9.56638 22.4897 9.60642 22.5057C9.60642 22.5057 9.78658 22.6411 9.94005 22.3623C9.94005 22.3623 9.9267 22.6252 10.1803 22.6809C10.1803 22.6809 10.287 22.7128 10.1069 22.8403C10.1069 22.8403 10.3738 22.9518 10.5005 22.5694C10.5005 22.5694 10.6073 22.6013 10.6874 22.5216C10.6874 22.5216 10.7474 22.5614 10.6206 22.7526C10.6206 22.7526 10.8342 22.7526 10.8876 22.2906C10.8876 22.2906 10.9076 21.9798 10.6674 21.9241C10.6674 21.9241 10.694 21.6771 10.4005 21.6213C10.4005 21.6213 10.227 21.5895 10.0201 21.7647C10.0201 21.7647 10.0401 21.4381 10.2136 21.1433C10.2136 21.1433 10.3271 21.3425 10.7875 21.5098C10.7875 21.5098 10.7408 21.8046 10.9543 21.948C10.9543 21.948 10.8942 21.5895 11.0877 21.5656C11.0877 21.5656 11.0277 21.9081 11.2812 22.0356C11.2812 22.0356 11.2012 21.6691 11.3947 21.5496C11.3947 21.5496 12.0085 21.223 11.775 20.5458C11.775 20.5458 11.5148 20.028 11.3947 19.8527C11.3947 19.8527 11.8217 19.789 12.469 19.9085C12.469 19.9085 12.8827 19.9085 12.9627 20.7052C12.9627 20.7052 13.0094 21.0716 12.5557 21.3744C12.5557 21.3744 13.1496 21.948 13.9503 21.9878C13.9503 21.9878 13.6634 22.5375 14.1104 22.6969C14.1104 22.6969 14.3239 22.7447 14.4707 22.5933C14.4707 22.5933 14.2706 22.6331 14.3573 22.4977C14.3573 22.4977 14.4774 22.426 14.4908 22.2348C14.4908 22.2348 14.5174 22.179 14.5908 22.2348C14.5908 22.2348 14.8844 22.3623 15.0446 22.0117C15.0446 22.0117 15.1313 21.94 15.0846 22.2029C15.0846 22.2029 15.3315 22.1312 15.158 21.6851C15.158 21.6851 15.1113 21.5895 15.0045 21.5496C15.0045 21.5496 15.2047 21.5018 15.1914 21.2947C15.1914 21.2947 15.198 21.1911 15.2714 21.3983C15.2714 21.3983 15.485 21.1433 15.138 20.9203C15.138 20.9203 14.9111 20.7131 14.6242 21.0238C14.6242 21.0238 14.4841 20.7689 14.1838 20.9999C14.1838 20.9999 14.0037 21.1911 14.0637 21.5257C14.0637 21.5257 14.1037 21.6691 13.9703 21.5337C13.9703 21.5337 13.5432 21.2867 13.4098 21.1433C13.4098 21.1433 13.6433 20.9521 13.7301 20.7769C13.7301 20.7769 13.9903 20.9282 14.1371 20.6494C14.1371 20.6494 13.9503 20.6813 13.9102 20.4741C13.9102 20.4741 14.1705 20.4582 14.2439 20.1794C14.2439 20.1794 13.9369 20.3387 13.7968 19.9722C13.7968 19.9722 13.5833 19.0003 12.3755 19.3269C12.3755 19.3269 12.0819 19.3827 12.3422 19.1756C12.3422 19.1756 13.3764 18.7453 13.6233 18.1239C13.6233 18.1239 14.2572 18.5621 14.4841 18.6816C14.4841 18.6816 14.7043 18.8409 15.0513 18.4585C15.0513 18.4585 15.198 18.2753 15.2915 18.3948C15.2915 18.3948 15.3248 18.5701 15.4049 18.5621C15.4049 18.5621 15.4182 18.6099 15.3248 18.6497C15.3248 18.6497 15.4716 18.8011 15.5117 18.5621C15.5117 18.5621 15.6318 18.4824 15.5384 18.2673C15.5384 18.2673 15.4983 18.1319 15.178 18.1558C15.178 18.1558 15.0579 18.1558 15.1247 18.0443C15.1247 18.0443 15.1714 17.9965 15.3115 18.0602C15.3115 18.0602 15.5917 18.2355 15.6651 18.116C15.6651 18.116 15.7185 18.116 15.6851 18.2195C15.6851 18.2195 15.912 18.108 15.6918 17.9646C15.6918 17.9646 15.6918 17.8053 15.4583 17.7734C15.4583 17.7734 15.3115 17.7654 15.1914 17.7973C15.1914 17.7973 14.9578 17.8451 15.0312 17.7336C15.0312 17.7336 15.0846 17.63 15.1847 17.6858C15.1847 17.6858 15.3982 17.7336 15.4383 17.622C15.4383 17.622 15.5317 17.5742 15.545 17.6539C15.545 17.6539 15.5717 17.7176 15.5851 17.5822C15.5851 17.5822 15.565 17.4786 15.4583 17.4866C15.4583 17.4866 15.4383 17.3352 15.138 17.391C15.138 17.391 15.0646 17.3751 14.9311 17.5583C14.9311 17.5583 14.8844 17.6539 14.8244 17.6937C14.8244 17.6937 14.7176 17.7415 14.7176 17.8212C14.7176 17.8212 14.5642 17.9487 14.444 17.877C14.444 17.877 13.9503 17.3034 13.8769 17.1839C13.8769 17.1839 13.8435 17.1201 13.8902 17.0962C13.8902 17.0962 14.3907 16.7855 14.6109 16.5784C14.6109 16.5784 14.6976 16.5386 14.7109 16.5784C14.7109 16.5784 14.8311 16.682 14.9245 16.5943C14.9245 16.5943 14.9779 16.5545 15.0045 16.6023C15.0045 16.6023 15.2047 16.7935 15.3916 16.6182C15.3916 16.6182 15.5517 16.5943 15.525 16.4111C15.525 16.4111 15.525 16.3553 15.4716 16.435H15.4316C15.4316 16.435 15.4049 16.2916 15.2381 16.3872C15.2381 16.3872 15.1046 16.5147 15.1046 16.2996C15.1046 16.2996 15.118 16.1721 15.2181 16.1402C15.2181 16.1402 15.2848 16.1163 15.3582 16.0367C15.3582 16.0367 15.4449 15.9968 15.485 16.0526C15.485 16.0526 15.5384 16.1801 15.6918 16.1641C15.6918 16.1641 15.7252 16.1641 15.6785 16.2119C15.6785 16.2119 15.6451 16.2836 15.7252 16.2358C15.7252 16.2358 15.8453 16.1562 15.7719 16.0446C15.7719 16.0446 15.7585 15.8136 15.4583 15.8454C15.4583 15.8454 15.2448 15.8773 15.3382 15.7737C15.3382 15.7737 15.3982 15.6941 15.4983 15.7419C15.4983 15.7419 15.6985 15.8614 15.7786 15.8295C15.7786 15.8295 15.8119 15.8295 15.7919 15.8853C15.7919 15.8853 15.8186 15.965 15.872 15.8375C15.872 15.8375 15.9053 15.7737 15.872 15.7339L15.892 15.7419ZM12.8493 14.8735L12.7225 14.7301C12.7225 14.7301 12.6958 14.6903 12.7492 14.6903C12.7492 14.6903 12.8293 14.6903 12.8893 14.7142C12.9027 14.7142 12.916 14.7301 12.9227 14.7381C12.9227 14.7381 12.9627 14.7221 12.936 14.8257L12.9227 14.8815C12.9227 14.8815 12.9227 14.9532 12.856 14.8815L12.8493 14.8735Z" fill="white"/>
<path d="M8.81874 5.5046H7.59766V11.631H8.81874V5.5046Z" fill="white"/>
<path d="M10.7788 11.631C10.7254 11.4159 9.93138 8.2611 9.93138 8.2611C9.93138 8.2611 10.6387 5.72767 10.6987 5.5046H9.57774C9.54437 5.6241 8.87711 8.25313 8.84375 8.38856C8.87711 8.53993 9.49766 11.4956 9.52435 11.6231H10.7788V11.631Z" fill="white"/>
<path d="M12.9684 9.72714C12.9684 10.3167 12.9284 10.476 12.8884 10.5477C12.8283 10.6672 12.6882 10.731 12.4546 10.731H12.3746V6.41297H12.4546C12.6215 6.41297 12.7349 6.43687 12.8016 6.47671C12.8817 6.53247 12.9284 6.61214 12.9484 6.72368L12.9684 7.28932V9.73511V9.72714ZM14.1295 10.962C14.1695 10.7788 14.1962 10.4123 14.1962 9.85461V7.64782C14.1962 7.05828 14.1828 6.65994 14.1561 6.46874C14.1295 6.28551 14.0561 6.11024 13.9426 5.95887C13.8292 5.8075 13.6624 5.69597 13.4422 5.63223C13.2153 5.56053 12.7683 5.52866 12.1143 5.52866H11.1602V11.6551H12.8216C13.1486 11.6551 13.3888 11.6392 13.5489 11.5993C13.7024 11.5595 13.8292 11.4878 13.9293 11.3842C14.0294 11.2886 14.0961 11.1612 14.1361 10.9859" fill="white"/>
<path d="M17.3982 11.1849C17.525 10.9937 17.5917 10.8025 17.6184 10.6272C17.6451 10.436 17.6518 10.1014 17.6518 9.63138V5.5046H16.4307V10.0536C16.4307 10.4918 16.4107 10.6193 16.3906 10.683C16.3573 10.8025 16.2772 10.8742 16.1571 10.8742C16.037 10.8742 15.9703 10.8105 15.9369 10.7069C15.9169 10.6432 15.8969 10.5237 15.8969 10.1492V5.51257H14.6758V9.15337C14.6758 9.86241 14.6758 10.3245 14.7091 10.5476C14.7292 10.7547 14.7959 10.9539 14.9093 11.1371C15.0161 11.3203 15.1896 11.4797 15.4164 11.5912C15.6433 11.7107 15.9169 11.7665 16.2171 11.7665C16.4907 11.7665 16.7309 11.7187 16.9311 11.6231C17.1246 11.5275 17.2848 11.3761 17.4049 11.1849" fill="white"/>
<defs>
<radialGradient id="paint0_radial_306_1299" cx="0" cy="0" r="1" gradientUnits="userSpaceOnUse" gradientTransform="translate(10.6012 9.31271) scale(13.859 16.5469)">
<stop stop-color="#0068B7"/>
<stop offset="0.2" stop-color="#0064B2"/>
<stop offset="0.43" stop-color="#005AA3"/>
<stop offset="0.68" stop-color="#00498C"/>
<stop offset="0.93" stop-color="#00316B"/>
<stop offset="1" stop-color="#002B62"/>
</radialGradient>
</defs>
</svg>
