<svg width="146" height="38" viewBox="0 0 146 38" fill="none" xmlns="http://www.w3.org/2000/svg">
<g clip-path="url(#clip0_179_3057)">
<path d="M138.936 20.4581V11.3449C138.936 11.3449 134.916 11.3449 134.704 11.3449C134.704 12.0384 135.111 12.3851 135.509 12.554V20.4492H133.5V11.336C133.5 11.336 129.48 11.336 129.276 11.336C129.276 12.0295 129.675 12.3673 130.073 12.5452V20.4492H127.16V22.1207H145.983V20.4492H138.936V20.4581Z" fill="white"/>
<path d="M50.4583 5.24567C50.4583 3.65418 49.3693 3.76088 49.3693 3.76088H39.3556V5.45905H46.3501C46.8194 5.45905 46.7928 5.92138 46.7928 6.11698C46.7928 8.09078 46.0845 10.2868 43.7471 11.4427C42.1623 12.2429 40.0019 12.3407 38.9395 12.4207L39.4707 14.1011C41.5336 14.11 44.9601 13.5676 47.0319 12.2784C49.8651 10.518 50.4406 7.09499 50.4406 5.23678" fill="white"/>
<path d="M141.264 19.2223L144.92 19.2312V3.72531H127.93V5.39681H141.264V19.2223Z" fill="white"/>
<path d="M97.0732 3.33411C97.0732 4.05428 97.4716 4.40992 97.8612 4.58774V10.1535H96.5597V3.33411H92.2213C92.2213 4.0365 92.6109 4.39214 93.0004 4.56996V19.2845H87.3163V5.49462H91.4599V3.76977C91.4599 3.76977 83.1461 3.76977 82.9336 3.76977C82.9336 4.48994 83.3409 4.85447 83.7393 5.0234V19.5868C83.7482 20.9738 85.2445 21.0005 85.3153 21.0005H92.9916V23.1699H96.542V11.8606H97.8435V23.1699H101.394V3.33411C101.394 3.33411 97.2591 3.33411 97.0466 3.33411" fill="white"/>
<path d="M74.2403 14.27H79.7474V12.1184H72.1685V10.0646H78.7557V8.50866H65.5635V5.3168H78.7557V3.76088C78.7557 3.76088 61.3225 3.76088 61.11 3.76088C61.11 4.40992 61.5084 4.73 61.9069 4.89003V8.73982C61.9069 10.0023 63.4829 10.0646 63.4829 10.0646H68.503V12.1184H60.8887V14.27H66.6083C66.6083 14.27 66.5994 14.27 66.5906 14.27H74.2491C74.2491 14.27 74.2491 14.27 74.2403 14.27Z" fill="white"/>
<path d="M70.3263 22.1474C67.6613 22.1474 65.5009 20.9027 65.5009 19.3734C65.5009 17.8442 67.6613 16.5905 70.3263 16.5905C72.9913 16.5905 75.1605 17.8353 75.1605 19.3734C75.1605 20.9116 72.9913 22.1474 70.3263 22.1474ZM70.3263 14.9724C65.678 14.9724 61.9062 16.9195 61.9062 19.3201C61.9062 21.7206 65.678 23.6678 70.3263 23.6678C74.9745 23.6678 78.7463 21.7206 78.7463 19.3201C78.7463 16.9195 74.9745 14.9724 70.3263 14.9724Z" fill="white"/>
<path d="M56.9483 3.33411H52.5037C52.5037 4.04539 52.9021 4.39214 53.3006 4.56996V5.92139H50.6621V7.62845H53.3006V9.58447H50.6621V11.3004H53.3006V14.2789H56.9483V3.33411Z" fill="white"/>
<path d="M48.6173 22.1474C45.9434 22.1474 43.7831 20.9027 43.7831 19.3734C43.7831 17.8442 45.9434 16.5905 48.6173 16.5905C51.2911 16.5905 53.4515 17.8353 53.4515 19.3734C53.4515 20.9116 51.2911 22.1474 48.6173 22.1474ZM48.6173 14.9724C43.969 14.9724 40.1973 16.9195 40.1973 19.3201C40.1973 21.7206 43.969 23.6678 48.6173 23.6678C53.2655 23.6678 57.0373 21.7206 57.0373 19.3201C57.0373 16.9195 53.2655 14.9724 48.6173 14.9724Z" fill="white"/>
<path d="M123.22 8.23304V3.36079C123.22 3.36079 119.306 3.36079 118.793 3.36079C118.793 4.06317 119.174 4.41881 119.563 4.60552V14.7057H123.22V9.95788H125.681V8.23304H123.22Z" fill="white"/>
<path d="M106.238 17.613H119.563V23.1876H123.22V15.8882H106.238V17.613Z" fill="white"/>
<path d="M115.783 6.21479H118.04V4.48994H113.551V2.94291H109.895V4.48994H105.459V6.21479H107.61H115.783Z" fill="white"/>
<path d="M111.728 13.6387C109.966 13.6387 108.531 12.3673 108.531 10.8114C108.531 10.1001 108.824 9.4511 109.319 8.95321C109.904 8.35751 110.763 7.98409 111.728 7.98409C112.64 7.98409 113.463 8.33084 114.047 8.87319C114.587 9.37997 114.915 10.0646 114.915 10.8114C114.915 12.3762 113.49 13.6387 111.728 13.6387ZM117.615 9.90454C117.049 7.88629 114.632 6.37482 111.728 6.37482C108.824 6.37482 106.389 7.89518 105.831 9.92232C105.751 10.2068 105.707 10.5002 105.707 10.8025C105.707 12.8386 107.584 14.5545 110.125 15.0702C110.639 15.1769 111.17 15.2391 111.728 15.2391C112.285 15.2391 112.817 15.1769 113.33 15.0702C115.871 14.5545 117.748 12.8386 117.748 10.8025C117.748 10.4913 117.704 10.1891 117.624 9.90454" fill="white"/>
<path d="M41.189 25.7305H39.1172V34.4347H41.189V25.7305Z" fill="white"/>
<path d="M44.4917 34.4347C44.4031 34.1235 43.0662 29.6425 43.0662 29.6425C43.0662 29.6425 44.2615 26.0416 44.3589 25.7305H42.4641C42.411 25.8994 41.2777 29.6425 41.2246 29.8381C41.2866 30.0515 42.3313 34.2569 42.3756 34.4436H44.4917V34.4347Z" fill="white"/>
<path d="M47.9166 25.7305C47.6332 27.0819 47.4207 28.2377 47.2791 29.1624L47.1197 30.3004L47.0312 29.1535C46.9869 28.5667 46.801 27.4109 46.4911 25.7305H44.6406C44.8974 26.6373 46.2255 31.2873 46.2343 31.3229V34.4436H48.129C48.129 34.2036 48.129 31.2873 48.129 31.2873C48.129 31.2873 49.6785 26.0505 49.7759 25.7394H47.9254L47.9166 25.7305Z" fill="white"/>
<path d="M54.9653 33.8035C55.169 33.5278 55.2929 33.2611 55.3283 33.0122C55.3726 32.7454 55.3992 32.2742 55.3992 31.5985V25.7305H53.3274V32.2031C53.3274 32.8255 53.292 33.0122 53.2654 33.0922C53.2034 33.27 53.0618 33.3589 52.867 33.3589C52.6899 33.3589 52.5571 33.27 52.4951 33.1189C52.4597 33.0299 52.4243 32.861 52.4243 32.3187V25.7305H50.3613V30.905C50.3613 31.9097 50.379 32.5765 50.4144 32.8877C50.4499 33.1811 50.565 33.4567 50.7509 33.7234C50.9368 33.9902 51.229 34.2124 51.6097 34.3725C51.9993 34.5503 52.4508 34.6303 52.9644 34.6303C53.4248 34.6303 53.832 34.5592 54.1685 34.4169C54.4961 34.2747 54.7705 34.0613 54.9742 33.7946" fill="white"/>
<path d="M61.4286 34.4347V25.7305H59.7464V30.4605C59.7464 30.4605 58.2855 25.8994 58.2235 25.7305H56.5059V34.4347H58.1969V29.5891C58.1969 29.5891 59.5693 34.2569 59.6224 34.4347H61.4375H61.4286Z" fill="white"/>
<path d="M65.9522 33.8657L66.1027 33.6079C66.1027 33.6079 66.3329 34.3014 66.3772 34.4347H67.6256V29.8914H65.1554V30.9939H65.6158V32.1764C65.6158 32.6121 65.5804 32.8966 65.5184 33.0566C65.4387 33.2522 65.2793 33.35 65.058 33.35C64.8012 33.35 64.6861 33.1989 64.633 33.0744C64.5799 32.9321 64.5533 32.6654 64.5533 32.2298V27.9265C64.5533 27.2953 64.6064 27.1086 64.6419 27.0285C64.695 26.913 64.8101 26.7885 65.0491 26.7885C65.3413 26.7885 65.4476 26.9574 65.483 27.073C65.5095 27.1619 65.5538 27.3664 65.5538 28.0777V28.7623H67.6167V28.5044C67.6167 27.7843 67.5548 27.233 67.4131 26.8685C67.2892 26.5129 67.0147 26.2017 66.5897 25.935C66.1647 25.6682 65.6246 25.526 64.9694 25.526C64.3143 25.526 63.7653 25.686 63.3492 25.9883C62.9419 26.2906 62.694 26.6285 62.6055 26.9752C62.5169 27.3575 62.4727 27.971 62.4727 28.8156V31.474L62.5346 32.8521C62.5789 33.1366 62.6852 33.4212 62.8445 33.679C63.0039 33.9457 63.2518 34.168 63.5705 34.3458C63.8893 34.5236 64.2346 34.6125 64.5976 34.6125C64.8986 34.6125 65.1642 34.5503 65.3856 34.4258C65.5981 34.2925 65.7929 34.1058 65.9345 33.8479" fill="white"/>
<path d="M71.7783 31.7319C71.7783 32.5676 71.7074 32.7988 71.6455 32.8966C71.5392 33.0655 71.3002 33.1544 70.9106 33.1544H70.7778V27.0197H70.9106C71.1939 27.0197 71.3887 27.0552 71.495 27.1086C71.6189 27.1886 71.7074 27.2953 71.734 27.4553L71.7694 28.2555V31.7319H71.7783ZM73.7438 33.4834C73.8147 33.2255 73.8501 32.701 73.8501 31.9008V28.7623C73.8501 27.9265 73.8235 27.3575 73.7792 27.0819C73.7261 26.8152 73.6022 26.5662 73.4162 26.3528C73.2215 26.1306 72.947 25.9794 72.5751 25.8816C72.1856 25.7838 71.433 25.7305 70.3262 25.7305H68.7148V34.4347H71.5215C72.0705 34.4347 72.4777 34.408 72.7433 34.3458C73.0001 34.2925 73.2215 34.1858 73.3897 34.0435C73.5579 33.9013 73.673 33.7234 73.7438 33.4745" fill="white"/>
<path d="M77.8789 32.0253C77.8789 32.5765 77.8524 32.9055 77.8081 33.0655C77.7461 33.2611 77.5956 33.3678 77.3831 33.3678C77.0998 33.3678 76.9935 33.1989 76.967 33.0922C76.9316 33.0033 76.8961 32.8077 76.8961 32.0875V27.9176C76.8961 27.2597 76.9581 27.0908 77.0113 27.0019C77.0998 26.8774 77.2326 26.8152 77.4008 26.8152C77.5956 26.8152 77.7373 26.9041 77.8081 27.073C77.8435 27.153 77.8878 27.3397 77.8878 27.9265V32.0342L77.8789 32.0253ZM79.508 33.7145C79.7205 33.4211 79.8445 33.1011 79.8799 32.7543C79.9242 32.3898 79.9419 31.7408 79.9419 30.8517V29.3135C79.9419 28.4066 79.9242 27.7576 79.871 27.3931C79.8356 27.0463 79.7028 26.7262 79.4815 26.4328C79.269 26.1394 78.9768 25.9172 78.6138 25.7749C78.2508 25.6238 77.8347 25.5437 77.3743 25.5437C76.8962 25.5437 76.4623 25.6327 76.0993 25.7838C75.7363 25.9349 75.453 26.1661 75.2405 26.4506C75.0368 26.744 74.9129 27.073 74.8686 27.4197C74.8243 27.7932 74.8066 28.4333 74.8066 29.3135V30.8517C74.8066 31.7674 74.8332 32.4165 74.8775 32.781C74.9217 33.1277 75.0457 33.4478 75.267 33.7412C75.4884 34.0346 75.7806 34.2658 76.1347 34.408C76.4977 34.5592 76.9227 34.6303 77.3743 34.6303C77.8612 34.6303 78.2862 34.5503 78.6492 34.3903C79.0034 34.2391 79.2955 34.0079 79.4992 33.7145" fill="white"/>
<path d="M85.9277 34.4347V25.7305H84.2366V30.4605C84.2366 30.4605 82.7669 25.8994 82.7226 25.7305H80.9961V34.4347H82.6872V29.5891C82.6872 29.5891 84.0684 34.2569 84.1215 34.4347H85.9454H85.9277Z" fill="white"/>
<path d="M90.4521 33.8657L90.5938 33.6079C90.5938 33.6079 90.8328 34.3014 90.8682 34.4347H92.1166V29.8914H89.6552V30.9939H90.1156V32.1764C90.1156 32.6121 90.0891 32.8966 90.0182 33.0566C89.9386 33.2522 89.7792 33.35 89.5579 33.35C89.2922 33.35 89.186 33.1989 89.1329 33.0744C89.0797 32.9321 89.0532 32.6654 89.0532 32.2298V27.9265C89.0532 27.2953 89.1063 27.1086 89.1417 27.0285C89.1948 26.913 89.3099 26.7885 89.549 26.7885C89.8412 26.7885 89.9474 26.9574 89.9828 27.073C90.0094 27.1619 90.0537 27.3664 90.0537 28.0777V28.7623H92.1255V28.5044C92.1255 27.7843 92.0635 27.233 91.9307 26.8685C91.7979 26.5129 91.5323 26.2017 91.1073 25.935C90.6734 25.6682 90.1334 25.526 89.487 25.526C88.8407 25.526 88.2829 25.686 87.8668 25.9883C87.4595 26.2906 87.2027 26.6285 87.123 26.9752C87.0345 27.3575 86.9902 27.971 86.9902 28.8156V31.474L87.0611 32.8521C87.0965 33.1366 87.2027 33.4212 87.371 33.679C87.5303 33.9457 87.7782 34.168 88.097 34.3458C88.4157 34.5236 88.7699 34.6125 89.1329 34.6125C89.425 34.6125 89.6995 34.5503 89.912 34.4258C90.1334 34.2925 90.3193 34.1058 90.4698 33.8479" fill="white"/>
<path d="M99.7036 33.8035C99.9161 33.5278 100.031 33.2611 100.075 33.0122C100.12 32.7454 100.137 32.2742 100.137 31.5985V25.7305H98.0745V32.2031C98.0745 32.8255 98.0391 33.0122 98.0037 33.0922C97.9505 33.27 97.8089 33.3589 97.6141 33.3589C97.4282 33.3589 97.2954 33.27 97.2422 33.1189C97.2068 33.0299 97.1714 32.861 97.1714 32.3187V25.7305H95.0996V30.905C95.0996 31.9097 95.1085 32.5765 95.1527 32.8877C95.1881 33.1811 95.2944 33.4567 95.4892 33.7234C95.6751 33.9902 95.9584 34.2124 96.348 34.3725C96.7287 34.5503 97.1891 34.6303 97.7026 34.6303C98.1719 34.6303 98.5703 34.5592 98.9068 34.4169C99.2344 34.2747 99.5088 34.0613 99.7036 33.7946" fill="white"/>
<path d="M106.167 34.4347V25.7305H104.476V30.4605C104.476 30.4605 103.006 25.8994 102.953 25.7305H101.227V34.4347H102.918V29.5891C102.918 29.5891 104.299 34.2569 104.352 34.4347H106.167Z" fill="white"/>
<path d="M109.355 25.7305H107.283V34.4347H109.355V25.7305Z" fill="white"/>
<path d="M113.552 25.7305C113.516 26.1039 113.41 27.2775 113.41 27.2775L113.02 31.8919H112.764C112.64 30.2115 112.436 28.1399 112.162 25.7305H109.975C110.019 26.015 111.25 34.2213 111.285 34.4347H114.579C114.614 34.2124 115.703 26.0061 115.747 25.7305H113.552Z" fill="white"/>
<path d="M119.846 30.6738V29.2246H118.394V27.2686H119.943V25.7305H116.322V34.4347H120.094V32.9055H118.394V30.6738H119.846Z" fill="white"/>
<path d="M123.015 27.0197H123.148C123.458 27.0197 123.661 27.073 123.794 27.1797C123.927 27.2953 123.989 27.5087 123.989 27.8287V28.3177C123.989 28.7712 123.918 29.0201 123.768 29.1179C123.644 29.2157 123.431 29.2513 123.139 29.2513H123.006V27.0019L123.015 27.0197ZM123.856 30.6294C123.909 30.7183 123.989 30.9139 123.989 31.5985V34.4436H125.884V32.212C125.884 31.3229 125.857 31.0206 125.822 30.9228C125.795 30.7805 125.698 30.6205 125.556 30.4427C125.414 30.2649 125.131 30.1315 124.706 30.0337L123.962 29.847L124.724 29.767C125.184 29.7225 125.503 29.598 125.653 29.3935C125.804 29.1802 125.893 28.7267 125.893 28.0599C125.893 27.3308 125.777 26.7885 125.547 26.4684C125.326 26.1483 125.025 25.9438 124.671 25.8727C124.299 25.7838 123.555 25.7482 122.475 25.7482H120.961V34.4525H123.024V30.416H123.157C123.529 30.416 123.75 30.4871 123.865 30.6383" fill="white"/>
<path d="M131.604 33.6345C131.745 33.35 131.816 32.8966 131.816 32.2831C131.816 31.4385 131.683 30.8161 131.444 30.4516C131.187 30.0782 130.541 29.5714 129.541 28.9668C129.169 28.7356 128.93 28.54 128.841 28.3711C128.744 28.2022 128.7 27.9621 128.7 27.642C128.7 27.3842 128.744 27.1886 128.823 27.0552C128.912 26.9041 129.071 26.8241 129.248 26.8241C129.461 26.8241 129.567 26.9307 129.629 27.0108C129.673 27.0819 129.735 27.2242 129.735 27.6687V28.1933H131.63V27.971C131.63 27.2775 131.568 26.7974 131.435 26.5218C131.311 26.255 131.046 26.0239 130.656 25.846C130.249 25.6593 129.753 25.5615 129.178 25.5615C128.646 25.5615 128.195 25.6416 127.823 25.8194C127.46 25.9883 127.194 26.2106 127.035 26.504C126.867 26.8063 126.787 27.2864 126.787 27.9443C126.787 28.3978 126.849 28.7801 126.964 29.0735C127.079 29.358 127.221 29.5891 127.398 29.7492C127.575 29.9181 127.956 30.1937 128.522 30.576C129.107 30.9584 129.47 31.2429 129.629 31.4118C129.797 31.6074 129.877 31.9719 129.877 32.5321C129.877 32.7988 129.833 32.9944 129.744 33.1366C129.638 33.2967 129.488 33.3767 129.293 33.3767C129.098 33.3767 128.947 33.3056 128.859 33.1722C128.806 33.1011 128.744 32.941 128.744 32.4609V31.5007H126.849V31.9541C126.849 32.6121 126.92 33.1189 127.044 33.4656C127.168 33.7946 127.442 34.088 127.85 34.3014C128.266 34.5325 128.77 34.6392 129.372 34.6392C129.913 34.6392 130.391 34.5414 130.798 34.3458C131.196 34.1502 131.462 33.919 131.595 33.6434" fill="white"/>
<path d="M134.799 25.7305H132.736V34.4347H134.799V25.7305Z" fill="white"/>
<path d="M140.352 25.7305H135.535V27.2686H136.908V34.4347H138.979V27.2686H140.352V25.7305Z" fill="white"/>
<path d="M144.149 25.7305C143.866 27.0819 143.653 28.2377 143.52 29.1624L143.352 30.3093L143.264 29.1535C143.219 28.5667 143.033 27.4109 142.723 25.7305H140.873C141.13 26.6373 142.458 31.2873 142.458 31.3229V34.4436H144.353C144.353 34.2036 144.353 31.2873 144.353 31.2873C144.353 31.2873 145.902 26.0505 145.991 25.7394H144.149V25.7305Z" fill="white"/>
<path d="M16.778 33.0833C8.18088 32.9499 4.44456 26.6107 4.44456 26.6107L1.47852 29.7936C1.47852 29.7936 6.1445 37.3954 16.778 37.6266C27.4114 37.4043 32.0774 29.7936 32.0774 29.7936L29.1114 26.6107C29.1114 26.6107 25.3751 32.9499 16.778 33.0833Z" fill="#E6002D"/>
<path d="M30.3346 20.5826C29.5555 23.4899 28.5019 25.4282 26.7754 27.4998C28.4222 26.8863 29.042 26.0772 29.0597 26.0594L31.4237 28.5845C32.4773 26.8774 33.1147 24.7614 33.2121 23.7033L30.3258 20.5915L30.3346 20.5826Z" fill="#E6002D"/>
<path d="M5.53445 29.7492L6.18078 30.2826L5.47247 31.8297L6.76514 30.7716L7.41147 31.314L5.91517 33.27L5.49904 32.9233L6.63233 31.4385L5.13603 32.6299L4.79958 32.3542L5.57872 30.576L4.44543 32.0608L4.0293 31.7141L5.5256 29.7581L5.53445 29.7492Z" fill="#FAFBFB"/>
<path d="M8.1291 31.7141L8.62491 32.0075L8.13795 34.6037L7.62443 34.3014L7.72182 33.8479L7.06664 33.4567L6.73904 33.7768L6.23438 33.4745L8.1291 31.7141ZM7.42079 33.1011L7.84578 33.3589L8.05827 32.4698L7.42965 33.1011H7.42079Z" fill="#FAFBFB"/>
<path d="M9.34255 32.4165L9.88263 32.6476L10.0154 34.3725L10.5821 32.9499L11.069 33.1633L10.1571 35.4839L9.61702 35.2527L9.49306 33.5101L8.92642 34.9504L8.43945 34.737L9.3514 32.4254L9.34255 32.4165Z" fill="#FAFBFB"/>
<path d="M11.9714 34.2213C12.0511 34.0791 12.1397 33.9546 12.2548 33.8568C12.3699 33.759 12.4938 33.6968 12.6443 33.6523C12.786 33.6168 12.9454 33.6168 13.1047 33.6523C13.2641 33.6879 13.4058 33.7501 13.5209 33.8479C13.636 33.9457 13.7334 34.0613 13.7953 34.1947C13.8662 34.328 13.9016 34.4792 13.9193 34.6481C13.937 34.817 13.9193 34.986 13.8927 35.1638C13.8573 35.3416 13.7953 35.5016 13.7245 35.6439C13.6448 35.7862 13.5474 35.9106 13.4412 36.0084C13.3261 36.1062 13.2021 36.1774 13.0516 36.2129C12.91 36.2485 12.7594 36.2485 12.5912 36.2129C12.4318 36.1774 12.2902 36.1151 12.1751 36.0173C12.06 35.9195 11.9626 35.8128 11.9006 35.6706C11.8298 35.5372 11.7944 35.3861 11.7767 35.2171C11.759 35.0482 11.7767 34.8793 11.8032 34.7015C11.8386 34.5236 11.9006 34.3636 11.9714 34.2213ZM12.3256 35.1016C12.3256 35.1905 12.3433 35.2794 12.3699 35.3505C12.3964 35.4305 12.4318 35.4928 12.4938 35.5461C12.5469 35.5994 12.6178 35.635 12.7063 35.6528C12.7949 35.6706 12.8657 35.6706 12.9365 35.6439C13.0073 35.6172 13.0693 35.5728 13.1224 35.5194C13.1756 35.4572 13.2198 35.3861 13.2553 35.306C13.2907 35.226 13.3172 35.1371 13.3349 35.0393C13.3526 34.9415 13.3615 34.8526 13.3615 34.7637C13.3615 34.6748 13.3438 34.5859 13.3172 34.5147C13.2907 34.4347 13.2553 34.3725 13.1933 34.3191C13.1402 34.2658 13.0693 34.2302 12.9808 34.2125C12.8922 34.1947 12.8214 34.1947 12.7506 34.2213C12.6798 34.248 12.6178 34.2925 12.5647 34.3547C12.5115 34.4169 12.4673 34.4881 12.4318 34.5681C12.3964 34.6481 12.3699 34.737 12.3522 34.8348C12.3345 34.9326 12.3256 35.0215 12.3256 35.1104V35.1016Z" fill="#FAFBFB"/>
<path d="M14.317 33.9457L15.9019 34.0969L15.8576 34.6214L14.8306 34.5236L14.7863 35.0304L15.6717 35.1193L15.6274 35.6261L14.742 35.5372L14.6535 36.4974L14.0957 36.4441L14.317 33.9546V33.9457Z" fill="#FAFBFB"/>
<path d="M16.9034 34.168L17.7268 34.088L18.2492 35.715L18.4617 34.0168L19.2851 33.9368L19.5153 36.4263L18.984 36.4796L18.807 34.5859L18.5325 36.5241L18.1075 36.5686L17.4789 34.7192L17.656 36.613L17.1247 36.6664L16.8945 34.1769L16.9034 34.168Z" fill="#FAFBFB"/>
<path d="M19.541 33.8301L20.09 33.7057L20.5946 36.1507L20.0457 36.2752L19.5499 33.8301H19.541Z" fill="#FAFBFB"/>
<path d="M21.2583 35.1193C21.3025 35.2527 21.3645 35.3327 21.453 35.3772C21.5327 35.4127 21.639 35.4127 21.7629 35.3772C21.8515 35.3505 21.9223 35.306 21.9754 35.2438C22.0285 35.1816 22.0462 35.1104 22.0197 35.0304C22.002 34.9504 21.9489 34.906 21.8603 34.8882C21.7806 34.8704 21.6567 34.8615 21.4973 34.8615C21.4176 34.8615 21.3556 34.8615 21.3202 34.8615C21.2228 34.8615 21.1343 34.8526 21.0635 34.8437C20.9838 34.8348 20.913 34.8081 20.8421 34.7726C20.7713 34.737 20.7093 34.6837 20.6473 34.6214C20.5942 34.5503 20.5499 34.4703 20.5234 34.3636C20.488 34.2391 20.4791 34.1235 20.5057 34.0169C20.5322 33.9102 20.5677 33.8124 20.6385 33.7235C20.7005 33.6434 20.7801 33.5634 20.8687 33.5101C20.9572 33.4478 21.0546 33.4034 21.1609 33.3767C21.2671 33.3411 21.3734 33.3234 21.4796 33.3234C21.5858 33.3234 21.6921 33.3411 21.7895 33.3856C21.8869 33.43 21.9754 33.4923 22.0462 33.5723C22.1171 33.6523 22.1791 33.7679 22.2145 33.8924L21.6744 34.0613C21.6478 33.9546 21.5947 33.8924 21.515 33.8746C21.4353 33.8479 21.3556 33.8479 21.2583 33.8746C21.1874 33.8924 21.1343 33.9279 21.09 33.9813C21.0458 34.0257 21.0369 34.088 21.0546 34.1591C21.0723 34.2213 21.1166 34.2658 21.1963 34.2747C21.276 34.2925 21.3911 34.2925 21.5416 34.2836C21.6213 34.2836 21.6921 34.2836 21.7452 34.2836C21.8426 34.2836 21.9311 34.2925 22.002 34.3014C22.0817 34.3191 22.1525 34.3369 22.2233 34.3725C22.2942 34.4081 22.3561 34.4614 22.4093 34.5236C22.4624 34.5948 22.5066 34.6748 22.5332 34.7815C22.5775 34.9237 22.5863 35.0571 22.5686 35.1816C22.5509 35.2972 22.5066 35.4038 22.4358 35.4928C22.3738 35.5817 22.2853 35.6528 22.1879 35.715C22.0905 35.7773 21.9754 35.8217 21.8603 35.8662C21.7364 35.9017 21.6124 35.9195 21.4973 35.9284C21.3822 35.9284 21.2671 35.9106 21.1697 35.8662C21.0635 35.8217 20.9749 35.7595 20.8952 35.6617C20.8156 35.5639 20.7536 35.4483 20.7093 35.2972L21.2494 35.1282L21.2583 35.1193Z" fill="#FAFBFB"/>
<path d="M23.2071 34.4347C23.2691 34.5592 23.3399 34.6392 23.4196 34.6659C23.5081 34.6926 23.6055 34.6837 23.7295 34.6303C23.818 34.5948 23.88 34.5414 23.9331 34.4703C23.9774 34.3992 23.9862 34.328 23.9597 34.248C23.9242 34.168 23.8711 34.1324 23.7914 34.1235C23.7117 34.1235 23.5878 34.1235 23.4284 34.1413C23.3487 34.1502 23.2956 34.1591 23.2602 34.1591C23.1628 34.168 23.0743 34.168 23.0034 34.1591C22.9238 34.1591 22.8529 34.1413 22.7732 34.1147C22.6936 34.088 22.6316 34.0435 22.5696 33.9813C22.5076 33.9191 22.4545 33.839 22.4102 33.7412C22.366 33.6168 22.3394 33.5012 22.3571 33.3945C22.366 33.2878 22.4014 33.1811 22.4545 33.0922C22.5076 33.0033 22.5785 32.9233 22.667 32.8521C22.7555 32.781 22.8441 32.7277 22.9415 32.6832C23.0477 32.6388 23.1451 32.6121 23.2513 32.5943C23.3576 32.5854 23.4638 32.5943 23.5612 32.621C23.6586 32.6476 23.756 32.701 23.8357 32.781C23.9154 32.8521 23.9862 32.9588 24.0393 33.0833L23.517 33.3145C23.4727 33.2167 23.4196 33.1544 23.3399 33.1455C23.2602 33.1278 23.1717 33.1455 23.0831 33.1811C23.0123 33.2078 22.968 33.2522 22.9238 33.3056C22.8883 33.3589 22.8795 33.4212 22.906 33.4923C22.9326 33.5545 22.9857 33.5901 23.0566 33.599C23.1362 33.599 23.2513 33.599 23.4019 33.5723C23.4815 33.5634 23.5524 33.5545 23.6055 33.5456C23.7029 33.5367 23.7914 33.5367 23.8623 33.5456C23.9419 33.5456 24.0128 33.5634 24.0925 33.5901C24.1721 33.6168 24.2341 33.6612 24.2961 33.7235C24.3581 33.7857 24.4112 33.8657 24.4466 33.9635C24.4997 34.1058 24.5263 34.2302 24.5174 34.3547C24.5174 34.4792 24.482 34.5859 24.4201 34.6837C24.3669 34.7815 24.2872 34.8615 24.1987 34.9326C24.1102 35.0038 24.0039 35.066 23.8888 35.1193C23.7737 35.1727 23.6498 35.2082 23.5347 35.2171C23.4196 35.2349 23.3045 35.2171 23.1982 35.1905C23.092 35.1638 22.9946 35.1016 22.906 35.0126C22.8175 34.9237 22.7467 34.817 22.6847 34.6748L23.2071 34.4436V34.4347Z" fill="#FAFBFB"/>
<path d="M23.9414 32.2742L24.4461 32.0075L25.544 34.2302L25.0393 34.497L23.9414 32.2742Z" fill="#FAFBFB"/>
<path d="M25.0658 32.5232C25.0304 32.3631 25.0127 32.2031 25.0304 32.0519C25.0481 31.9008 25.0924 31.7585 25.172 31.6341C25.2517 31.5007 25.358 31.394 25.4996 31.2962C25.6413 31.2073 25.783 31.154 25.9335 31.1362C26.084 31.1184 26.2257 31.1362 26.3585 31.1895C26.5001 31.2429 26.6241 31.314 26.748 31.4296C26.872 31.5363 26.9782 31.6696 27.0668 31.8208C27.1642 31.9719 27.2261 32.132 27.2704 32.292C27.3058 32.452 27.3235 32.6121 27.3058 32.7632C27.2881 32.9144 27.2438 33.0566 27.1642 33.1811C27.0845 33.3145 26.9782 33.4212 26.8366 33.519C26.6949 33.6079 26.5532 33.6612 26.4027 33.679C26.2522 33.6968 26.1106 33.679 25.9777 33.6256C25.8361 33.5723 25.7121 33.4923 25.5882 33.3856C25.4642 33.2789 25.358 33.1455 25.2694 32.9944C25.1809 32.8432 25.1101 32.6832 25.0658 32.5232ZM25.9158 32.9055C25.9777 32.9677 26.0397 33.0211 26.1106 33.0566C26.1814 33.0922 26.2522 33.11 26.3319 33.11C26.4116 33.11 26.4824 33.0833 26.5532 33.0388C26.6241 32.9944 26.6772 32.9322 26.7126 32.861C26.748 32.7899 26.7657 32.7099 26.7657 32.6299C26.7657 32.5498 26.748 32.4609 26.7215 32.3809C26.6949 32.3009 26.6506 32.212 26.6064 32.132C26.5532 32.0519 26.5001 31.9808 26.4381 31.9097C26.3762 31.8475 26.3142 31.7941 26.2434 31.7585C26.1725 31.723 26.1017 31.7052 26.022 31.7052C25.9423 31.7052 25.8715 31.7319 25.8007 31.7763C25.7298 31.8208 25.6767 31.883 25.6413 31.9541C25.6059 32.0253 25.5882 32.0964 25.597 32.1853C25.597 32.2653 25.6147 32.3542 25.6413 32.4343C25.6679 32.5232 25.7121 32.6032 25.7564 32.6832C25.8095 32.7632 25.8626 32.8344 25.9246 32.9055H25.9158Z" fill="#FAFBFB"/>
<path d="M26.5703 30.6472L27.0219 30.2738L28.5359 30.9939L27.6151 29.7848L28.0312 29.438L29.5275 31.394L29.076 31.7674L27.5531 31.0384L28.4916 32.2653L28.0755 32.6121L26.5792 30.6561L26.5703 30.6472Z" fill="#FAFBFB"/>
<path d="M6.51675 28.54L7.13652 27.9532C6.4105 27.7309 5.61366 27.3308 5.16211 27.0641C5.52512 27.5087 6.11833 28.1399 6.51675 28.54Z" fill="#E6002D"/>
<path d="M28.4041 27.073C27.9526 27.3397 27.1557 27.7398 26.4297 27.9621L27.0495 28.5489C27.4479 28.1488 28.0411 27.5176 28.4041 27.073Z" fill="#E6002D"/>
<path d="M30.0943 20.2981C30.0943 20.2981 29.811 19.9424 29.6162 19.9336C29.5277 19.9336 29.3506 19.8802 29.1913 20.2625C29.0142 20.6893 29.3772 21.1161 29.3772 21.1161L29.7313 21.5428L30.0943 20.2981Z" fill="#E6002D"/>
<path d="M4.18787 21.1161C4.18787 21.1161 4.55973 20.6893 4.3738 20.2625C4.21443 19.8802 4.0285 19.9336 3.94881 19.9336C3.75403 19.9336 3.4707 20.2981 3.4707 20.2981L3.83371 21.5428L4.18787 21.1161Z" fill="#E6002D"/>
<path d="M4.50701 26.0594C4.50701 26.0594 5.14449 26.8863 6.79131 27.4998C5.06481 25.4282 4.0112 23.4899 3.23206 20.5826L0.345703 23.6944C0.443095 24.7525 1.08943 26.8685 2.13418 28.5756L4.49816 26.0505L4.50701 26.0594Z" fill="#E6002D"/>
<path d="M30.3695 20.1558C30.3695 20.1558 30.1216 19.8891 30.1127 19.8802C29.9091 19.6757 29.7409 19.649 29.67 19.649C29.2893 19.6313 29.0503 19.9424 28.9617 20.1469C28.705 20.796 29.1388 21.3117 29.2008 21.3917C29.2273 21.4272 29.4044 21.6495 29.6258 21.8718C28.9263 24.1034 27.6868 26.1039 26.04 27.7665L25.8717 27.9443L26.7748 28.789C24.0921 31.2962 20.5417 32.7277 16.7965 32.7277C13.0514 32.7277 9.50096 31.2962 6.81825 28.789L7.72134 27.9443L7.55312 27.7665C5.89745 26.1039 4.66676 24.1034 3.96731 21.8718C4.1798 21.6495 4.35688 21.4272 4.39229 21.3917C4.46312 21.3205 4.88811 20.8049 4.63135 20.1469C4.54281 19.9424 4.30375 19.6313 3.92304 19.649C3.85221 19.649 3.69284 19.6668 3.48035 19.8802L3.22358 20.1558L0.0273438 23.5789C0.0273438 23.5789 0.408059 26.5307 1.90436 28.8334L1.04554 29.7581L1.15178 29.9181C4.36573 34.7548 10.6608 38 16.8054 38C22.95 38 29.2451 34.7548 32.4679 29.9181L32.5741 29.7581L31.7153 28.8334C33.2116 26.5307 33.5923 23.5789 33.5923 23.5789L30.3961 20.1558H30.3695ZM29.3779 21.1161C29.3779 21.1161 29.006 20.6893 29.1919 20.2625C29.3513 19.8802 29.5372 19.9336 29.6169 19.9336C29.8117 19.9336 30.095 20.2981 30.095 20.2981L29.732 21.5428L29.3779 21.1161ZM26.4295 27.9532C27.1555 27.7309 27.9524 27.3308 28.4039 27.0641C28.0409 27.5087 27.4477 28.1399 27.0493 28.54L26.4295 27.9532ZM6.51722 28.54C6.11879 28.1399 5.52558 27.5087 5.16258 27.0641C5.61412 27.3308 6.41097 27.7309 7.13699 27.9532L6.51722 28.54ZM3.9496 19.9336C4.03814 19.9336 4.21522 19.8802 4.37458 20.2625C4.56052 20.6893 4.18865 21.1161 4.18865 21.1161L3.8345 21.5428L3.47149 20.2981C3.47149 20.2981 3.75481 19.9424 3.9496 19.9336ZM0.346082 23.6944L3.23244 20.5826C4.01158 23.4899 5.06518 25.4282 6.79169 27.4998C5.14487 26.8863 4.5251 26.0772 4.50739 26.0594L2.14341 28.5845C1.08981 26.8774 0.452329 24.7614 0.354936 23.7033L0.346082 23.6944ZM32.0783 29.8025C32.0783 29.8025 27.4123 37.4043 16.7788 37.6355C6.14535 37.4132 1.47938 29.8025 1.47938 29.8025L4.44542 26.6196C4.44542 26.6196 8.18174 32.9588 16.7788 33.0922C25.3759 32.9588 29.1122 26.6196 29.1122 26.6196L32.0783 29.8025ZM31.4231 28.5845L29.0591 26.0594C29.0591 26.0594 28.4216 26.8863 26.7748 27.4998C28.5013 25.4282 29.5549 23.4899 30.3341 20.5826L33.2204 23.6944C33.123 24.7525 32.4767 26.8685 31.432 28.5756L31.4231 28.5845Z" fill="#CCCCCC"/>
<path d="M29.0762 26.0328L29.1564 26.1128L29.0851 26.0239L29.0762 26.0328Z" fill="#CCCCCC"/>
<path d="M29.0769 26.0239L29.0234 26.1039C29.0234 26.1039 29.068 26.0505 29.0769 26.0328V26.0239Z" fill="#CCCCCC"/>
<path d="M4.49023 26.0328C4.49023 26.0328 4.51697 26.0772 4.5437 26.1039L4.49023 26.0239V26.0328Z" fill="#CCCCCC"/>
<path d="M16.7796 32.3276C18.0103 31.6874 31.6098 27.3842 28.9625 14.2967C27.9 9.01544 29.6354 4.08095 30.1666 2.55171C29.4672 2.59616 28.5375 2.63173 27.4751 2.63173C23.9069 2.63173 19.2852 1.93823 16.7796 0C14.274 1.93823 9.6434 2.63173 6.08415 2.63173C5.02169 2.63173 4.08318 2.59616 3.39258 2.55171C3.92381 4.08095 5.65916 9.01544 4.5967 14.2967C1.95825 27.3842 15.5578 31.6874 16.7796 32.3276Z" fill="url(#paint0_radial_179_3057)"/>
<path d="M16.7796 0.897988C20.1883 3.17408 25.784 3.36079 27.4751 3.36079C28.024 3.36079 28.5818 3.35189 29.1396 3.33411C28.4224 5.54796 27.3245 9.83341 28.2542 14.4389C29.2281 19.2489 28.0063 23.3655 24.6507 26.6907C21.9148 29.3935 18.5327 30.7983 17.0895 31.4029C16.9744 31.4474 16.8681 31.4918 16.7796 31.5363C16.6911 31.5007 16.5937 31.4562 16.4697 31.4029C15.0265 30.7983 11.6532 29.3935 8.90853 26.6907C5.54406 23.3744 4.33109 19.2489 5.30501 14.4389C6.23466 9.83341 5.12793 5.54796 4.41962 3.33411C4.97742 3.35189 5.53521 3.36079 6.08415 3.36079C7.77523 3.36079 13.3797 3.17408 16.7796 0.897988ZM16.7796 0C14.274 1.93823 9.6434 2.63173 6.08415 2.63173C5.02169 2.63173 4.08318 2.59616 3.39258 2.55171C3.92381 4.08095 5.65916 9.01544 4.5967 14.2967C1.95825 27.3842 15.5578 31.6874 16.7796 32.3276C18.0103 31.6874 31.6098 27.3842 28.9625 14.2967C27.9 9.01544 29.6354 4.08095 30.1666 2.55171C29.4672 2.59616 28.5375 2.63173 27.4751 2.63173C23.9069 2.63173 19.2852 1.93823 16.7796 0Z" fill="#DCDDDD"/>
<path d="M21.1088 17.5419C21.1088 17.5419 21.0999 17.453 21.0557 17.4085C21.0557 17.4085 20.914 17.2129 20.4447 17.3463C20.4447 17.3463 20.2145 17.453 20.2322 17.2929C20.2322 17.2929 20.2322 17.1951 20.4182 17.2307C20.4182 17.2307 20.7104 17.2663 20.8166 17.1774C20.8166 17.1774 20.9051 17.1773 20.8786 17.2396C20.8786 17.2396 20.8609 17.3018 20.9671 17.2129C20.9671 17.2129 21.0202 17.0795 20.852 17.044C20.852 17.044 20.7989 16.8128 20.3385 16.9195C20.3385 16.9195 20.2322 16.9551 20.1171 17.0618L20.064 17.1062C19.9047 17.1062 19.6656 17.5152 19.6656 17.5152C19.5239 17.7108 19.3823 17.7553 19.3823 17.7553L17.9657 18.1731C17.8151 18.2176 17.7532 18.1376 17.7532 18.1376L17.5495 17.942C17.4964 17.8886 17.6646 17.9064 17.6646 17.9064C17.8151 17.9242 17.8329 17.8264 17.8329 17.8264C18.0011 17.533 17.8329 17.5863 17.8329 17.5863C17.7355 17.6041 17.2131 17.6575 17.2131 17.6575C17.0537 17.6486 17.1157 17.453 17.1157 17.453C17.1954 17.2574 17.2839 17.1329 17.2839 17.1329C17.5938 16.8395 18.0188 17.3196 18.0188 17.3196C18.2047 17.0173 18.2136 16.7595 18.2136 16.7595C18.2313 16.4572 17.5849 16.4216 17.5849 16.4216V16.3238C17.5849 16.226 17.4167 16.1727 17.2042 16.1371C16.8678 16.0838 16.4162 16.1015 16.4162 16.1015C16.4162 16.1015 16.4428 15.8615 16.2037 15.8081C16.2037 15.8081 15.9204 15.7637 15.9735 16.0927H15.9293C15.9293 16.0927 15.8319 15.8259 15.522 15.8615C15.522 15.8615 15.2121 15.9059 15.2298 16.1905C15.2298 16.1905 15.2652 16.3772 15.4512 16.3772C15.4512 16.3772 15.0705 16.4927 14.8757 16.8662C14.858 16.9017 14.8403 16.9284 14.8314 16.964C14.8314 16.964 14.7074 17.6397 14.3002 17.7019C14.3002 17.7019 14.433 17.8797 14.8048 17.6841C14.8048 17.6841 14.8845 18.0842 14.5038 18.6355C14.5038 18.6355 14.4595 18.7333 14.6101 18.6355C14.6101 18.6355 14.8225 18.5021 14.9288 18.2887C14.9288 18.2887 15.221 18.6799 14.858 19.3823C14.858 19.3823 14.7606 19.5601 14.9554 19.4268C14.9554 19.4268 15.1944 19.2401 15.2652 18.8844C15.2652 18.8844 15.3095 18.8133 15.3272 18.9022C15.3272 18.9022 15.46 19.3734 15.3803 20.0491C15.3803 20.0491 15.3803 20.1558 15.46 20.0491C15.46 20.0491 15.6194 19.8713 15.6814 19.3379C15.6814 19.3379 15.6991 19.2578 15.7345 19.3645C15.7345 19.3645 15.9293 19.6579 15.885 20.3159C15.885 20.3159 15.885 20.627 15.6017 20.8315C15.6017 20.8315 14.8314 21.1961 14.5481 21.7029C14.5481 21.7029 14.2736 21.9518 13.9283 22.0051C13.9283 22.0051 13.3174 22.1207 13.4679 21.2583C13.4679 21.2583 13.6981 20.2536 13.9017 19.8446C13.9017 19.8446 14.2559 18.9911 14.2116 18.2354C14.2116 18.2354 14.1762 17.5241 13.5033 17.4619C13.5033 17.4619 13.2377 17.373 12.9367 17.7553C12.9367 17.7553 12.795 18.0398 13.0252 18.3065L12.9898 18.3243C12.9898 18.3243 12.919 18.2354 12.6976 18.262C12.6976 18.262 12.3081 18.3421 12.4674 18.7955C12.4674 18.7955 12.5117 18.92 12.6179 18.9822C12.6179 18.9822 12.9013 19.1956 12.9721 19.3023C12.9721 19.3023 13.1226 19.4979 13.1226 19.7379C13.1226 19.7379 13.6184 19.3112 13.6893 18.6533C13.6893 18.6533 13.7601 18.2976 13.3882 18.1998C13.3882 18.1998 13.2111 18.1731 13.1315 18.3332C13.1315 18.3332 12.8481 17.9509 13.3705 17.7819C13.3705 17.7819 14.0611 17.7019 13.9283 18.9644C13.9283 18.9644 13.8663 19.4268 13.6893 19.898C13.6893 19.898 13.3174 20.8404 13.2377 21.1338C13.2377 21.1338 12.9544 22.2985 13.7512 22.3163C13.7512 22.3163 14.1231 22.3697 14.4861 22.0229C14.4861 22.0229 14.6189 22.4052 14.5923 22.8942C14.5923 22.8942 14.4684 23.4544 13.8044 23.0009C13.8044 23.0009 13.4059 22.6986 12.9455 22.2719C12.9455 22.2719 12.8924 22.2452 12.8924 22.343C12.8924 22.343 12.7419 23.5077 12.8481 24.2901C12.8481 24.2901 11.9805 24.5924 12.7153 25.3215C12.7153 25.3215 12.6799 25.1881 12.6976 25.117C12.6976 25.117 12.7153 25.0725 12.7685 25.0903C12.7685 25.0903 13.0075 25.2415 13.2111 24.9303C13.2111 24.9303 13.1934 25.2237 13.5299 25.2859C13.5299 25.2859 13.6715 25.3215 13.4325 25.4637C13.4325 25.4637 13.7866 25.5882 13.9549 25.1614C13.9549 25.1614 14.0965 25.197 14.2028 25.1081C14.2028 25.1081 14.2825 25.1525 14.1142 25.3659C14.1142 25.3659 14.3976 25.3659 14.4684 24.8503C14.4684 24.8503 14.495 24.5035 14.1762 24.4413C14.1762 24.4413 14.2116 24.1657 13.8221 24.1034C13.8221 24.1034 13.5919 24.0679 13.3174 24.2635C13.3174 24.2635 13.344 23.8989 13.5742 23.57C13.5742 23.57 13.7247 23.7922 14.3356 23.9789C14.3356 23.9789 14.2736 24.3079 14.5569 24.4679C14.5569 24.4679 14.4772 24.0679 14.734 24.0412C14.734 24.0412 14.6543 24.4235 14.9908 24.5657C14.9908 24.5657 14.8845 24.1568 15.1413 24.0234C15.1413 24.0234 15.9558 23.6589 15.646 22.9031C15.646 22.9031 15.3007 22.3252 15.1413 22.1296C15.1413 22.1296 15.7079 22.0585 16.5668 22.1919C16.5668 22.1919 17.1157 22.1919 17.2219 23.081C17.2219 23.081 17.2839 23.4899 16.6819 23.8278C16.6819 23.8278 17.4698 24.4679 18.5323 24.5124C18.5323 24.5124 18.1516 25.1259 18.7448 25.3037C18.7448 25.3037 19.0281 25.357 19.2229 25.1881C19.2229 25.1881 18.9573 25.2326 19.0724 25.0814C19.0724 25.0814 19.2318 25.0014 19.2495 24.788C19.2495 24.788 19.2849 24.7258 19.3823 24.788C19.3823 24.788 19.7718 24.9303 19.9843 24.5391C19.9843 24.5391 20.0994 24.4591 20.0375 24.7525C20.0375 24.7525 20.3651 24.6724 20.1349 24.1745C20.1349 24.1745 20.0729 24.0679 19.9312 24.0234C19.9312 24.0234 20.1968 23.9701 20.1791 23.7389C20.1791 23.7389 20.188 23.6233 20.2854 23.8545C20.2854 23.8545 20.5687 23.57 20.1083 23.321C20.1083 23.321 19.8073 23.0898 19.4265 23.4366C19.4265 23.4366 19.2406 23.1521 18.8422 23.4099C18.8422 23.4099 18.6031 23.6233 18.6828 23.9967C18.6828 23.9967 18.7359 24.1568 18.5589 24.0056C18.5589 24.0056 17.9922 23.73 17.8151 23.57C17.8151 23.57 18.125 23.3566 18.2401 23.161C18.2401 23.161 18.5854 23.3299 18.7802 23.0187C18.7802 23.0187 18.5323 23.0543 18.4792 22.8231C18.4792 22.8231 18.8245 22.8053 18.9219 22.4941C18.9219 22.4941 18.5146 22.672 18.3287 22.263C18.3287 22.263 18.0453 21.1783 16.4428 21.5428C16.4428 21.5428 16.0532 21.6051 16.3985 21.3739C16.3985 21.3739 17.7709 20.8938 18.0985 20.2003C18.0985 20.2003 18.9396 20.6893 19.2406 20.8226C19.2406 20.8226 19.5328 21.0005 19.9932 20.5737C19.9932 20.5737 20.188 20.3692 20.3119 20.5026C20.3119 20.5026 20.3562 20.6982 20.4624 20.6893C20.4624 20.6893 20.4802 20.7426 20.3562 20.7871C20.3562 20.7871 20.551 20.956 20.6041 20.6893C20.6041 20.6893 20.7635 20.6004 20.6395 20.3603C20.6395 20.3603 20.5864 20.2092 20.1614 20.2358C20.1614 20.2358 20.002 20.2358 20.0906 20.1114C20.0906 20.1114 20.1526 20.058 20.3385 20.1292C20.3385 20.1292 20.7104 20.3248 20.8077 20.1914C20.8077 20.1914 20.8786 20.1914 20.8343 20.307C20.8343 20.307 21.1353 20.1825 20.8432 20.0225C20.8432 20.0225 20.8432 19.8446 20.5333 19.8091C20.5333 19.8091 20.3385 19.8002 20.1791 19.8357C20.1791 19.8357 19.8692 19.8891 19.9666 19.7646C19.9666 19.7646 20.0375 19.649 20.1703 19.7113C20.1703 19.7113 20.4536 19.7646 20.5067 19.6401C20.5067 19.6401 20.6307 19.5868 20.6484 19.6757C20.6484 19.6757 20.6838 19.7468 20.7015 19.5957C20.7015 19.5957 20.6749 19.4801 20.5333 19.489C20.5333 19.489 20.5067 19.3201 20.1083 19.3823C20.1083 19.3823 20.0109 19.3645 19.8338 19.569C19.8338 19.569 19.7718 19.6757 19.6922 19.7202C19.6922 19.7202 19.5505 19.7735 19.5505 19.8624C19.5505 19.8624 19.3469 20.0047 19.1875 19.9247C19.1875 19.9247 18.5323 19.2845 18.4349 19.1511C18.4349 19.1511 18.3906 19.08 18.4526 19.0533C18.4526 19.0533 19.1167 18.7066 19.4088 18.4754C19.4088 18.4754 19.5239 18.431 19.5416 18.4754C19.5416 18.4754 19.701 18.591 19.825 18.4932C19.825 18.4932 19.8958 18.4488 19.9312 18.5021C19.9312 18.5021 20.1968 18.7155 20.4447 18.5199C20.4447 18.5199 20.6572 18.4932 20.6218 18.2887C20.6218 18.2887 20.6218 18.2265 20.551 18.3154H20.4979C20.4979 18.3154 20.4624 18.1554 20.2411 18.262C20.2411 18.262 20.064 18.4043 20.064 18.1642C20.064 18.1642 20.0817 18.022 20.2145 17.9864C20.2145 17.9864 20.3031 17.9598 20.4005 17.8708C20.4005 17.8708 20.5156 17.8264 20.5687 17.8886C20.5687 17.8886 20.6395 18.0309 20.8432 18.0131C20.8432 18.0131 20.8874 18.0131 20.8255 18.0664C20.8255 18.0664 20.7812 18.1465 20.8874 18.0931C20.8874 18.0931 21.0468 18.0042 20.9494 17.8797C20.9494 17.8797 20.9317 17.6219 20.5333 17.6575C20.5333 17.6575 20.25 17.693 20.3739 17.5774C20.3739 17.5774 20.4536 17.4885 20.5864 17.5419C20.5864 17.5419 20.852 17.6752 20.9583 17.6397C20.9583 17.6397 21.0025 17.6397 20.976 17.7019C20.976 17.7019 21.0114 17.7908 21.0822 17.6486C21.0822 17.6486 21.1265 17.5774 21.0822 17.533L21.1088 17.5419ZM17.0714 16.5728L16.9032 16.4127C16.9032 16.4127 16.8678 16.3683 16.9386 16.3683C16.9386 16.3683 17.0449 16.3683 17.1245 16.3949C17.1423 16.3949 17.16 16.4127 17.1688 16.4216C17.1688 16.4216 17.2219 16.4038 17.1865 16.5194L17.1688 16.5817C17.1688 16.5817 17.1688 16.6617 17.0803 16.5817L17.0714 16.5728Z" fill="white"/>
<path d="M11.7238 6.11699H10.1035V12.9541H11.7238V6.11699Z" fill="white"/>
<path d="M14.3274 12.9541C14.2566 12.7141 13.2029 9.19326 13.2029 9.19326C13.2029 9.19326 14.1415 6.36594 14.2211 6.11699H12.7337C12.6894 6.25035 11.804 9.18437 11.7598 9.33552C11.804 9.50445 12.6274 12.803 12.6629 12.9453H14.3274V12.9541Z" fill="white"/>
<path d="M17.2314 10.8292C17.2314 11.4871 17.1783 11.665 17.1252 11.745C17.0455 11.8783 16.8596 11.9495 16.5497 11.9495H16.4434V7.13056H16.5497C16.771 7.13056 16.9215 7.15723 17.0101 7.20169C17.1163 7.26392 17.1783 7.35283 17.2049 7.47731L17.2314 8.10857V10.8381V10.8292ZM18.772 12.2073C18.8251 12.0028 18.8605 11.5938 18.8605 10.9715V8.50866C18.8605 7.85073 18.8428 7.40618 18.8074 7.1928C18.772 6.9883 18.6746 6.7927 18.5241 6.62377C18.3736 6.45485 18.1522 6.33037 17.86 6.25924C17.559 6.17923 16.9658 6.14366 16.0981 6.14366H14.832V12.9808H17.0366C17.4705 12.9808 17.7892 12.963 18.0017 12.9186C18.2053 12.8741 18.3736 12.7941 18.5064 12.6785C18.6392 12.5718 18.7277 12.4296 18.7808 12.234" fill="white"/>
<path d="M23.1007 12.4563C23.2689 12.2429 23.3574 12.0295 23.3928 11.8339C23.4282 11.6205 23.4371 11.2471 23.4371 10.7225V6.11699H21.8168V11.1937C21.8168 11.6827 21.7903 11.825 21.7637 11.8961C21.7195 12.0295 21.6132 12.1095 21.4538 12.1095C21.2945 12.1095 21.2059 12.0384 21.1617 11.9228C21.1351 11.8517 21.1085 11.7183 21.1085 11.3004V6.12588H19.4883V10.1891C19.4883 10.9803 19.4883 11.496 19.5325 11.745C19.5591 11.9761 19.6477 12.1984 19.7982 12.4029C19.9398 12.6074 20.17 12.7852 20.4711 12.9097C20.7721 13.0431 21.1351 13.1053 21.5335 13.1053C21.8965 13.1053 22.2153 13.0519 22.4809 12.9453C22.7376 12.8386 22.9501 12.6696 23.1095 12.4563" fill="white"/>
</g>
<defs>
<radialGradient id="paint0_radial_179_3057" cx="0" cy="0" r="1" gradientUnits="userSpaceOnUse" gradientTransform="translate(14.1057 10.3669) scale(18.3894 18.4665)">
<stop stop-color="#0068B7"/>
<stop offset="0.2" stop-color="#0064B2"/>
<stop offset="0.43" stop-color="#005AA3"/>
<stop offset="0.68" stop-color="#00498C"/>
<stop offset="0.93" stop-color="#00316B"/>
<stop offset="1" stop-color="#002B62"/>
</radialGradient>
<clipPath id="clip0_179_3057">
<rect width="146" height="38" fill="white"/>
</clipPath>
</defs>
</svg>
